<svg width="503" height="27" viewBox="0 0 503 27" fill="none" xmlns="http://www.w3.org/2000/svg">
<path d="M242.52 20L240.96 16.38H233.6L232.04 20H230.36L236.56 5.9H237.98L244.18 20H242.52ZM234.18 15.02H240.38L237.28 7.8L234.18 15.02ZM250.096 18.84C250.39 18.84 250.683 18.82 250.976 18.78L250.896 20.06C250.59 20.1133 250.256 20.14 249.896 20.14C248.723 20.14 247.836 19.8333 247.236 19.22C246.65 18.6067 246.356 17.7533 246.356 16.66V11.54H244.456V10.26H246.356V7.3H247.976V10.26H250.736V11.54H247.976V16.54C247.976 18.0733 248.683 18.84 250.096 18.84ZM256.573 10.02C257.813 10.02 258.733 10.34 259.333 10.98C259.947 11.6067 260.253 12.5667 260.253 13.86V20H258.673V18.34C258.42 18.9133 258.033 19.36 257.513 19.68C256.993 19.9867 256.393 20.14 255.713 20.14C255.087 20.14 254.507 20.0133 253.973 19.76C253.453 19.5067 253.04 19.1533 252.733 18.7C252.427 18.2467 252.273 17.7467 252.273 17.2C252.273 16.4667 252.46 15.9 252.833 15.5C253.207 15.0867 253.82 14.7933 254.673 14.62C255.527 14.4333 256.713 14.34 258.233 14.34H258.673V13.68C258.673 12.8667 258.507 12.28 258.173 11.92C257.84 11.5467 257.3 11.36 256.553 11.36C255.433 11.36 254.32 11.7067 253.213 12.4L252.673 11.22C253.18 10.86 253.787 10.5733 254.493 10.36C255.213 10.1333 255.907 10.02 256.573 10.02ZM255.933 18.86C256.733 18.86 257.387 18.5933 257.893 18.06C258.413 17.5133 258.673 16.8133 258.673 15.96V15.38H258.313C257.14 15.38 256.247 15.4333 255.633 15.54C255.02 15.6333 254.58 15.8 254.313 16.04C254.06 16.2667 253.933 16.6067 253.933 17.06C253.933 17.58 254.12 18.0133 254.493 18.36C254.88 18.6933 255.36 18.86 255.933 18.86ZM271.419 10.26V20H269.839V18.34C269.532 18.9267 269.099 19.3733 268.539 19.68C267.992 19.9867 267.372 20.14 266.679 20.14C265.519 20.14 264.645 19.82 264.059 19.18C263.472 18.5267 263.179 17.5667 263.179 16.3V10.26H264.799V16.26C264.799 17.1267 264.972 17.7667 265.319 18.18C265.665 18.58 266.212 18.78 266.959 18.78C267.812 18.78 268.499 18.5067 269.019 17.96C269.539 17.4 269.799 16.6667 269.799 15.76V10.26H271.419Z" fill="black"/>
<path d="M1 14H208" stroke="#0F0F0F" stroke-linecap="round"/>
<path d="M295 14H502" stroke="black" stroke-linecap="round"/>
</svg>
