<svg width="121" height="26" viewBox="0 0 121 26" fill="none" xmlns="http://www.w3.org/2000/svg">
<rect x="0.5" y="0.5" width="120" height="25" rx="12.5" stroke="black"/>
<path d="M94 11L100 17L106 11" stroke="black"/>
<path d="M27.5897 19H25.6997L21.2357 14.806V19H19.7777V6.31H21.2357V14.212L25.3217 10.252H27.1757L22.8197 14.446L27.5897 19ZM32.2714 10.018C33.3874 10.018 34.2154 10.306 34.7554 10.882C35.3074 11.446 35.5834 12.31 35.5834 13.474V19H34.1614V17.506C33.9334 18.022 33.5854 18.424 33.1174 18.712C32.6494 18.988 32.1094 19.126 31.4974 19.126C30.9334 19.126 30.4114 19.012 29.9314 18.784C29.4634 18.556 29.0914 18.238 28.8154 17.83C28.5394 17.422 28.4014 16.972 28.4014 16.48C28.4014 15.82 28.5694 15.31 28.9054 14.95C29.2414 14.578 29.7934 14.314 30.5614 14.158C31.3294 13.99 32.3974 13.906 33.7654 13.906H34.1614V13.312C34.1614 12.58 34.0114 12.052 33.7114 11.728C33.4114 11.392 32.9254 11.224 32.2534 11.224C31.2454 11.224 30.2434 11.536 29.2474 12.16L28.7614 11.098C29.2174 10.774 29.7634 10.516 30.3994 10.324C31.0474 10.12 31.6714 10.018 32.2714 10.018ZM31.6954 17.974C32.4154 17.974 33.0034 17.734 33.4594 17.254C33.9274 16.762 34.1614 16.132 34.1614 15.364V14.842H33.8374C32.7814 14.842 31.9774 14.89 31.4254 14.986C30.8734 15.07 30.4774 15.22 30.2374 15.436C30.0094 15.64 29.8954 15.946 29.8954 16.354C29.8954 16.822 30.0634 17.212 30.3994 17.524C30.7474 17.824 31.1794 17.974 31.6954 17.974ZM42.1043 17.956C42.3683 17.956 42.6323 17.938 42.8963 17.902L42.8243 19.054C42.5483 19.102 42.2483 19.126 41.9243 19.126C40.8683 19.126 40.0703 18.85 39.5303 18.298C39.0023 17.746 38.7383 16.978 38.7383 15.994V11.386H37.0283V10.234H38.7383V7.57H40.1963V10.234H42.6803V11.386H40.1963V15.886C40.1963 17.266 40.8323 17.956 42.1043 17.956ZM51.7135 14.842H45.3055C45.3535 15.862 45.6295 16.636 46.1335 17.164C46.6375 17.68 47.3515 17.938 48.2755 17.938C49.2955 17.938 50.2315 17.59 51.0835 16.894L51.5695 17.956C51.1855 18.316 50.6935 18.604 50.0935 18.82C49.4935 19.024 48.8815 19.126 48.2575 19.126C46.8895 19.126 45.8095 18.724 45.0175 17.92C44.2375 17.116 43.8475 16.006 43.8475 14.59C43.8475 13.69 44.0215 12.898 44.3695 12.214C44.7175 11.518 45.2035 10.978 45.8275 10.594C46.4635 10.21 47.1835 10.018 47.9875 10.018C49.1515 10.018 50.0635 10.402 50.7235 11.17C51.3835 11.926 51.7135 12.97 51.7135 14.302V14.842ZM48.0055 11.152C47.2375 11.152 46.6195 11.392 46.1515 11.872C45.6955 12.352 45.4255 13.03 45.3415 13.906H50.4355C50.4115 13.018 50.1895 12.34 49.7695 11.872C49.3495 11.392 48.7615 11.152 48.0055 11.152ZM61.7097 10.234V18.406C61.7097 19.714 61.3737 20.698 60.7017 21.358C60.0297 22.03 59.0337 22.366 57.7137 22.366C56.1777 22.366 54.8877 21.97 53.8437 21.178L54.3297 20.098C54.9177 20.482 55.4697 20.758 55.9857 20.926C56.5017 21.094 57.0777 21.178 57.7137 21.178C58.5537 21.178 59.1897 20.95 59.6217 20.494C60.0537 20.05 60.2697 19.396 60.2697 18.532V16.984C60.0177 17.548 59.6277 17.98 59.0997 18.28C58.5837 18.58 57.9717 18.73 57.2637 18.73C56.4957 18.73 55.8117 18.55 55.2117 18.19C54.6237 17.83 54.1617 17.32 53.8257 16.66C53.5017 16 53.3397 15.238 53.3397 14.374C53.3397 13.51 53.5017 12.748 53.8257 12.088C54.1617 11.428 54.6237 10.918 55.2117 10.558C55.8117 10.198 56.4957 10.018 57.2637 10.018C57.9597 10.018 58.5657 10.168 59.0817 10.468C59.5977 10.768 59.9877 11.194 60.2517 11.746V10.234H61.7097ZM57.5517 17.524C58.3917 17.524 59.0517 17.248 59.5317 16.696C60.0117 16.132 60.2517 15.358 60.2517 14.374C60.2517 13.402 60.0117 12.64 59.5317 12.088C59.0637 11.524 58.4037 11.242 57.5517 11.242C56.6997 11.242 56.0277 11.524 55.5357 12.088C55.0557 12.64 54.8157 13.402 54.8157 14.374C54.8157 15.358 55.0557 16.132 55.5357 16.696C56.0277 17.248 56.6997 17.524 57.5517 17.524ZM68.0446 19.126C67.2166 19.126 66.4846 18.94 65.8486 18.568C65.2246 18.196 64.7386 17.668 64.3906 16.984C64.0546 16.288 63.8866 15.484 63.8866 14.572C63.8866 13.66 64.0546 12.862 64.3906 12.178C64.7386 11.482 65.2246 10.948 65.8486 10.576C66.4846 10.204 67.2166 10.018 68.0446 10.018C68.8726 10.018 69.6046 10.204 70.2406 10.576C70.8766 10.948 71.3626 11.482 71.6986 12.178C72.0466 12.862 72.2206 13.66 72.2206 14.572C72.2206 15.484 72.0466 16.288 71.6986 16.984C71.3626 17.668 70.8766 18.196 70.2406 18.568C69.6046 18.94 68.8726 19.126 68.0446 19.126ZM68.0446 17.92C68.9086 17.92 69.5686 17.638 70.0246 17.074C70.4926 16.498 70.7266 15.664 70.7266 14.572C70.7266 13.504 70.4926 12.682 70.0246 12.106C69.5566 11.518 68.8966 11.224 68.0446 11.224C67.1926 11.224 66.5326 11.518 66.0646 12.106C65.5966 12.682 65.3626 13.504 65.3626 14.572C65.3626 15.652 65.5906 16.48 66.0466 17.056C66.5146 17.632 67.1806 17.92 68.0446 17.92ZM79.361 11.278L78.407 11.368C77.507 11.452 76.853 11.734 76.445 12.214C76.049 12.694 75.851 13.288 75.851 13.996V19H74.393V10.234H75.815V11.764C76.307 10.744 77.273 10.174 78.713 10.054L79.235 10.018L79.361 11.278ZM80.7387 19V10.234H82.1967V19H80.7387ZM80.5947 6.436H82.3587V8.074H80.5947V6.436Z" fill="black"/>
</svg>
