<svg width="41" height="40" viewBox="0 0 41 40" fill="none" xmlns="http://www.w3.org/2000/svg">
<circle cx="20.3845" cy="20" r="20" fill="#090909"/>
<path d="M23.8327 18.312C24.8247 18.6 25.5847 19.096 26.1127 19.8C26.6407 20.488 26.9047 21.36 26.9047 22.416C26.9047 23.888 26.4007 25.048 25.3927 25.896C24.4007 26.744 23.0487 27.168 21.3367 27.168C20.2487 27.168 19.2007 26.984 18.1927 26.616C17.1847 26.248 16.3367 25.736 15.6487 25.08L16.3927 23.568C17.9287 24.864 19.5607 25.512 21.2887 25.512C22.4887 25.512 23.4007 25.248 24.0247 24.72C24.6487 24.176 24.9607 23.384 24.9607 22.344C24.9607 20.28 23.6647 19.248 21.0727 19.248H19.1287V17.592H20.6887C21.9367 17.592 22.8967 17.32 23.5687 16.776C24.2407 16.216 24.5767 15.416 24.5767 14.376C24.5767 13.464 24.3047 12.768 23.7607 12.288C23.2167 11.792 22.4407 11.544 21.4327 11.544C19.8007 11.544 18.2007 12.192 16.6327 13.488L15.8887 11.976C16.5767 11.32 17.4167 10.808 18.4087 10.44C19.4007 10.072 20.4327 9.888 21.5047 9.888C23.0407 9.888 24.2567 10.28 25.1527 11.064C26.0647 11.832 26.5207 12.872 26.5207 14.184C26.5207 15.16 26.2807 16.016 25.8007 16.752C25.3367 17.472 24.6807 17.992 23.8327 18.312Z" fill="white"/>
</svg>
