<svg width="40" height="40" viewBox="0 0 40 40" fill="none" xmlns="http://www.w3.org/2000/svg">
<circle cx="20" cy="20" r="19.25" fill="black" stroke="black" stroke-width="1.5"/>
<path d="M25.0099 25.344V27H14.1139V25.512L20.0419 18.984C20.8419 18.088 21.4179 17.288 21.7699 16.584C22.1379 15.864 22.3219 15.144 22.3219 14.424C22.3219 13.496 22.0499 12.784 21.5059 12.288C20.9619 11.792 20.1939 11.544 19.2019 11.544C17.5699 11.544 15.9699 12.192 14.4019 13.488L13.6579 11.976C14.3299 11.336 15.1699 10.832 16.1779 10.464C17.2019 10.08 18.2259 9.888 19.2499 9.888C20.8019 9.888 22.0259 10.288 22.9219 11.088C23.8339 11.888 24.2899 12.968 24.2899 14.328C24.2899 15.304 24.0659 16.24 23.6179 17.136C23.1859 18.032 22.4659 19.032 21.4579 20.136L16.6579 25.344H25.0099Z" fill="white"/>
</svg>
