<svg width="46" height="46" viewBox="0 0 46 46" fill="none" xmlns="http://www.w3.org/2000/svg">
<path d="M20.4146 36.4136C20.4146 39.4096 20.413 42.4054 20.4098 45.401C20.4098 45.541 20.3376 45.681 20.299 45.821C20.1586 45.7532 19.9844 45.7181 19.8825 45.6127C17.7554 43.4144 15.6327 41.2116 13.5147 39.0044C13.283 38.764 13.183 38.4987 13.1845 38.1519C13.1977 34.5978 13.1942 31.0432 13.1942 27.4886C13.1942 26.9033 13.1167 26.8409 12.5319 26.8468C11.7193 26.8555 10.9063 26.8468 10.0932 26.8521C9.63234 26.8555 9.53138 26.9531 9.53138 27.416C9.52943 29.4969 9.53089 31.5779 9.53577 33.6589C9.53577 33.735 9.55772 33.8165 9.53577 33.8862C9.49383 34.0325 9.43091 34.172 9.37628 34.3144C9.26654 34.2257 9.13242 34.1549 9.05097 34.0452C8.12866 32.8034 7.21661 31.5544 6.29821 30.3097C4.91354 28.4334 3.53179 26.5541 2.13591 24.6856C1.72231 24.1316 1.25799 23.616 0.836588 23.0669C0.773183 22.9839 0.770257 22.7693 0.832686 22.6894C1.64866 21.6432 2.49097 20.6175 3.30744 19.5718C4.26729 18.3427 5.20959 17.1004 6.15628 15.8616C7.11126 14.6125 8.05843 13.359 9.01926 12.1139C9.11096 11.9949 9.2602 11.9188 9.38262 11.8261C9.43432 11.9822 9.52894 12.1383 9.52894 12.2948C9.53528 14.554 9.52894 16.8136 9.52894 19.0743C9.52894 19.6313 9.6143 19.7171 10.1688 19.7171C15.2351 19.7171 20.3013 19.7171 25.3675 19.7171C25.865 19.7171 25.9675 19.5976 25.9679 19.0221C25.9679 15.8866 25.9679 12.751 25.9679 9.61522C25.9679 6.80979 25.9626 4.00631 25.9679 1.19893C25.9679 1.05261 26.0509 0.901902 26.0952 0.753632C26.2386 0.815086 26.4108 0.84435 26.522 0.942384C28.5978 2.7704 30.6638 4.60915 32.7396 6.43668C33.0171 6.68054 33.1488 6.94099 33.1474 7.32289C33.1337 11.2452 33.1371 15.168 33.1371 19.0904C33.1371 19.6722 33.1937 19.7196 33.7653 19.7171C34.7178 19.7132 35.6675 19.7171 36.6224 19.7171C37.1692 19.7171 37.2619 19.6332 37.2619 19.0748C37.2619 16.8151 37.2565 14.5555 37.2619 12.2953C37.2619 12.1422 37.3287 11.99 37.3643 11.8373C37.514 11.9349 37.7057 12.0036 37.8062 12.1383C39.0869 13.8239 40.3521 15.5212 41.6266 17.2107C42.9698 18.9922 44.3161 20.7713 45.6655 22.5479C45.8264 22.7601 45.8289 22.9464 45.6679 23.1668C44.0246 25.4241 42.385 27.6818 40.7491 29.94C39.7652 31.2936 38.7805 32.6467 37.7949 33.9993C37.7705 34.0436 37.7373 34.0825 37.6974 34.1135C37.5833 34.1774 37.4623 34.2291 37.3443 34.2852C37.315 34.1686 37.2604 34.052 37.2604 33.935C37.2565 32.3255 37.2604 30.7106 37.2604 29.0986C37.2604 28.5402 37.2658 27.9812 37.2604 27.4228C37.257 26.9468 37.1531 26.8492 36.6707 26.8492L21.8149 26.8531C21.5223 26.8531 21.2296 26.8463 20.937 26.8414C20.5283 26.8341 20.4239 26.9331 20.4073 27.3516C20.4039 27.4272 20.4073 27.5037 20.4073 27.5798V36.4136H20.4146Z" fill="white"/>
<path d="M25.5962 37.0154C25.5962 34.4352 25.601 31.8549 25.5904 29.2747C25.5904 28.9251 25.7122 28.7523 26.0603 28.7518C27.9522 28.7518 29.844 28.7518 31.7355 28.7518C32.0471 28.7518 32.1751 28.8962 32.1737 29.2178C32.1618 32.2865 32.1581 35.3551 32.1626 38.4238C32.1626 38.8374 32.0663 39.1551 31.7582 39.4575C29.8804 41.3011 28.0272 43.1649 26.1576 45.0167C26.0531 45.1202 25.8846 45.1611 25.7459 45.2285C25.6978 45.0841 25.613 44.9397 25.6125 44.7952C25.6045 42.2026 25.6024 39.6097 25.6063 37.0164L25.5962 37.0154Z" fill="white"/>
<path d="M19.9999 8.53484V15.7884C19.9999 16.4509 19.9243 16.5202 19.27 16.5193C17.5655 16.517 15.8614 16.517 14.1576 16.5193C13.6978 16.5193 13.6106 16.4465 13.6102 15.9733C13.6063 12.8918 13.601 9.81029 13.6188 6.72881C13.6188 6.50973 13.7493 6.23481 13.9106 6.08218C15.2385 4.82551 16.5876 3.59147 17.931 2.35118C18.4462 1.87596 18.958 1.39592 19.4833 0.93177C19.5829 0.844141 19.7399 0.821029 19.8709 0.768066C19.9161 0.901437 20.0014 1.03433 20.0018 1.1677C20.0095 3.62293 20.0115 6.07849 20.0076 8.53436L19.9999 8.53484Z" fill="white"/>
</svg>
