<svg width="178" height="178" viewBox="0 0 178 178" fill="none" xmlns="http://www.w3.org/2000/svg">
<path d="M77.3229 140.454C77.3229 152.255 77.3165 164.054 77.3037 175.853C77.3037 176.405 77.0194 176.956 76.8676 177.507C76.3144 177.24 75.6286 177.102 75.2271 176.687C66.8488 168.028 58.4884 159.352 50.146 150.659C49.2335 149.712 48.8397 148.667 48.8455 147.301C48.8974 133.302 48.8839 119.302 48.8839 105.301C48.8839 102.996 48.5785 102.75 46.2751 102.773C43.0747 102.808 39.8723 102.773 36.67 102.794C34.8546 102.808 34.4569 103.192 34.4569 105.015C34.4493 113.212 34.455 121.408 34.4742 129.604C34.4742 129.904 34.5607 130.225 34.4742 130.5C34.309 131.076 34.0612 131.625 33.846 132.186C33.4138 131.837 32.8855 131.558 32.5647 131.126C28.932 126.235 25.3397 121.315 21.7224 116.413C16.2686 109.022 10.8263 101.621 5.32829 94.2613C3.69925 92.079 1.87042 90.0484 0.210649 87.8854C-0.0390855 87.5588 -0.0506121 86.7135 0.19528 86.3985C3.40917 82.2779 6.7268 78.2379 9.94261 74.1192C13.7232 69.2782 17.4346 64.3854 21.1634 59.5059C24.9248 54.5862 28.6554 49.6491 32.4398 44.7447C32.801 44.276 33.3888 43.9763 33.871 43.6113C34.0747 44.226 34.4473 44.8408 34.4473 45.4574C34.4723 54.3556 34.4473 63.2558 34.4473 72.1598C34.4473 74.3536 34.7835 74.6917 36.9677 74.6917C56.9222 74.6917 76.8766 74.6917 96.831 74.6917C98.7905 74.6917 99.1939 74.221 99.1958 71.9542C99.1958 59.6045 99.1958 47.2542 99.1958 34.9033C99.1958 23.8535 99.1747 12.8114 99.1958 1.7539C99.1958 1.17759 99.5224 0.583994 99.6972 0C100.262 0.24205 100.94 0.357313 101.378 0.74344C109.554 7.94347 117.692 15.1858 125.867 22.3839C126.961 23.3444 127.479 24.3702 127.473 25.8744C127.42 41.3233 127.433 56.7742 127.433 72.2232C127.433 74.515 127.656 74.7013 129.907 74.6917C133.659 74.6763 137.399 74.6917 141.161 74.6917C143.314 74.6917 143.679 74.3613 143.679 72.1617C143.679 63.2616 143.658 54.3614 143.679 45.4593C143.679 44.8561 143.942 44.2568 144.083 43.6555C144.672 44.0397 145.427 44.3106 145.823 44.8408C150.868 51.4799 155.851 58.1651 160.871 64.8195C166.161 71.8364 171.464 78.8437 176.779 85.8414C177.413 86.677 177.422 87.4109 176.788 88.2792C170.316 97.1697 163.858 106.062 157.415 114.957C153.539 120.288 149.661 125.618 145.779 130.945C145.683 131.12 145.552 131.273 145.395 131.395C144.945 131.646 144.469 131.85 144.004 132.071C143.889 131.612 143.674 131.153 143.674 130.692C143.658 124.352 143.674 117.992 143.674 111.643C143.674 109.443 143.695 107.242 143.674 105.042C143.66 103.167 143.251 102.783 141.351 102.783L82.8382 102.798C81.6856 102.798 80.533 102.771 79.3803 102.752C77.7705 102.723 77.3594 103.113 77.2941 104.762C77.2806 105.059 77.2941 105.361 77.2941 105.661V140.454H77.3229Z" fill="white"/>
<path d="M97.7316 142.824C97.7316 132.661 97.7505 122.499 97.7088 112.336C97.7088 110.959 98.1886 110.278 99.5597 110.276C107.011 110.276 114.462 110.276 121.913 110.276C123.14 110.276 123.644 110.845 123.639 112.112C123.592 124.198 123.577 136.285 123.595 148.371C123.595 150 123.216 151.252 122.002 152.443C114.606 159.704 107.307 167.045 99.9428 174.339C99.5313 174.747 98.8675 174.908 98.3214 175.173C98.1317 174.604 97.7979 174.036 97.796 173.467C97.7644 163.255 97.7562 153.042 97.7714 142.828L97.7316 142.824Z" fill="white"/>
<path d="M75.6894 30.648V59.2175C75.6894 61.827 75.3917 62.1001 72.8145 62.0963C66.1012 62.0874 59.3891 62.0874 52.6783 62.0963C50.8672 62.0963 50.524 61.8099 50.5221 59.9457C50.5069 47.8087 50.4861 35.6716 50.5562 23.5345C50.5562 22.6717 51.0702 21.5888 51.7055 20.9876C56.9358 16.038 62.2495 11.1775 67.5405 6.2923C69.5697 4.42054 71.5856 2.52981 73.6546 0.701667C74.0471 0.356519 74.6654 0.265491 75.1812 0.0568848C75.3595 0.582192 75.6951 1.1056 75.697 1.63091C75.7274 11.3014 75.735 20.9731 75.7198 30.6461L75.6894 30.648Z" fill="white"/>
</svg>
