<svg width="30" height="31" viewBox="0 0 30 31" fill="none" xmlns="http://www.w3.org/2000/svg">
<path d="M0 1.25C0 0.984784 0.105357 0.73043 0.292893 0.542893C0.48043 0.355357 0.734784 0.25 1 0.25H4C4.22306 0.250062 4.4397 0.324701 4.61546 0.462049C4.79122 0.599398 4.91602 0.791568 4.97 1.008L5.78 4.25H29C29.1468 4.25014 29.2918 4.28261 29.4247 4.3451C29.5576 4.4076 29.675 4.49859 29.7688 4.61161C29.8625 4.72463 29.9302 4.8569 29.9671 4.99904C30.0039 5.14117 30.009 5.28967 29.982 5.434L26.982 21.434C26.9391 21.6632 26.8175 21.8701 26.6382 22.0191C26.4589 22.1681 26.2331 22.2498 26 22.25H8C7.76686 22.2498 7.54113 22.1681 7.36182 22.0191C7.18251 21.8701 7.0609 21.6632 7.018 21.434L4.02 5.464L3.22 2.25H1C0.734784 2.25 0.48043 2.14464 0.292893 1.95711C0.105357 1.76957 0 1.51522 0 1.25ZM6.204 6.25L8.83 20.25H25.17L27.796 6.25H6.204ZM10 22.25C8.93913 22.25 7.92172 22.6714 7.17157 23.4216C6.42143 24.1717 6 25.1891 6 26.25C6 27.3109 6.42143 28.3283 7.17157 29.0784C7.92172 29.8286 8.93913 30.25 10 30.25C11.0609 30.25 12.0783 29.8286 12.8284 29.0784C13.5786 28.3283 14 27.3109 14 26.25C14 25.1891 13.5786 24.1717 12.8284 23.4216C12.0783 22.6714 11.0609 22.25 10 22.25ZM24 22.25C22.9391 22.25 21.9217 22.6714 21.1716 23.4216C20.4214 24.1717 20 25.1891 20 26.25C20 27.3109 20.4214 28.3283 21.1716 29.0784C21.9217 29.8286 22.9391 30.25 24 30.25C25.0609 30.25 26.0783 29.8286 26.8284 29.0784C27.5786 28.3283 28 27.3109 28 26.25C28 25.1891 27.5786 24.1717 26.8284 23.4216C26.0783 22.6714 25.0609 22.25 24 22.25ZM10 24.25C10.5304 24.25 11.0391 24.4607 11.4142 24.8358C11.7893 25.2109 12 25.7196 12 26.25C12 26.7804 11.7893 27.2891 11.4142 27.6642C11.0391 28.0393 10.5304 28.25 10 28.25C9.46957 28.25 8.96086 28.0393 8.58579 27.6642C8.21071 27.2891 8 26.7804 8 26.25C8 25.7196 8.21071 25.2109 8.58579 24.8358C8.96086 24.4607 9.46957 24.25 10 24.25ZM24 24.25C24.5304 24.25 25.0391 24.4607 25.4142 24.8358C25.7893 25.2109 26 25.7196 26 26.25C26 26.7804 25.7893 27.2891 25.4142 27.6642C25.0391 28.0393 24.5304 28.25 24 28.25C23.4696 28.25 22.9609 28.0393 22.5858 27.6642C22.2107 27.2891 22 26.7804 22 26.25C22 25.7196 22.2107 25.2109 22.5858 24.8358C22.9609 24.4607 23.4696 24.25 24 24.25Z" fill="black"/>
</svg>
