<svg width="158" height="158" viewBox="0 0 158 158" fill="none" xmlns="http://www.w3.org/2000/svg">
<g filter="url(#filter0_d_169_514)">
<rect x="4" y="4" width="150" height="150" rx="20" fill="#F5F5F5"/>
<g opacity="0.5" clip-path="url(#clip0_169_514)">
<path d="M88.375 80.875C88.375 83.3614 87.3873 85.746 85.6291 87.5041C83.871 89.2623 81.4864 90.25 79 90.25C76.5136 90.25 74.129 89.2623 72.3709 87.5041C70.6127 85.746 69.625 83.3614 69.625 80.875C69.625 78.3886 70.6127 76.004 72.3709 74.2459C74.129 72.4877 76.5136 71.5 79 71.5C81.4864 71.5 83.871 72.4877 85.6291 74.2459C87.3873 76.004 88.375 78.3886 88.375 80.875Z" fill="black"/>
<path d="M56.5 64C54.5109 64 52.6032 64.7902 51.1967 66.1967C49.7902 67.6032 49 69.5109 49 71.5V94C49 95.9891 49.7902 97.8968 51.1967 99.3033C52.6032 100.71 54.5109 101.5 56.5 101.5H101.5C103.489 101.5 105.397 100.71 106.803 99.3033C108.21 97.8968 109 95.9891 109 94V71.5C109 69.5109 108.21 67.6032 106.803 66.1967C105.397 64.7902 103.489 64 101.5 64H97.105C95.116 63.9996 93.2087 63.2091 91.8025 61.8025L88.6975 58.6975C87.2913 57.2909 85.384 56.5004 83.395 56.5H74.605C72.616 56.5004 70.7087 57.2909 69.3025 58.6975L66.1975 61.8025C64.7913 63.2091 62.884 63.9996 60.895 64H56.5ZM58.375 71.5C57.8777 71.5 57.4008 71.3025 57.0492 70.9508C56.6975 70.5992 56.5 70.1223 56.5 69.625C56.5 69.1277 56.6975 68.6508 57.0492 68.2992C57.4008 67.9475 57.8777 67.75 58.375 67.75C58.8723 67.75 59.3492 67.9475 59.7008 68.2992C60.0525 68.6508 60.25 69.1277 60.25 69.625C60.25 70.1223 60.0525 70.5992 59.7008 70.9508C59.3492 71.3025 58.8723 71.5 58.375 71.5ZM92.125 80.875C92.125 84.356 90.7422 87.6944 88.2808 90.1558C85.8194 92.6172 82.481 94 79 94C75.519 94 72.1806 92.6172 69.7192 90.1558C67.2578 87.6944 65.875 84.356 65.875 80.875C65.875 77.394 67.2578 74.0556 69.7192 71.5942C72.1806 69.1328 75.519 67.75 79 67.75C82.481 67.75 85.8194 69.1328 88.2808 71.5942C90.7422 74.0556 92.125 77.394 92.125 80.875Z" fill="black"/>
</g>
</g>
<defs>
<filter id="filter0_d_169_514" x="0" y="0" width="158" height="158" filterUnits="userSpaceOnUse" color-interpolation-filters="sRGB">
<feFlood flood-opacity="0" result="BackgroundImageFix"/>
<feColorMatrix in="SourceAlpha" type="matrix" values="0 0 0 0 0 0 0 0 0 0 0 0 0 0 0 0 0 0 127 0" result="hardAlpha"/>
<feOffset/>
<feGaussianBlur stdDeviation="2"/>
<feComposite in2="hardAlpha" operator="out"/>
<feColorMatrix type="matrix" values="0 0 0 0 0 0 0 0 0 0 0 0 0 0 0 0 0 0 0.25 0"/>
<feBlend mode="normal" in2="BackgroundImageFix" result="effect1_dropShadow_169_514"/>
<feBlend mode="normal" in="SourceGraphic" in2="effect1_dropShadow_169_514" result="shape"/>
</filter>
<clipPath id="clip0_169_514">
<rect width="60" height="60" fill="white" transform="translate(49 49)"/>
</clipPath>
</defs>
</svg>
