<svg width="202" height="50" viewBox="0 0 202 50" fill="none" xmlns="http://www.w3.org/2000/svg">
<rect width="202" height="50" rx="24" fill="#FF8A00"/>
<path d="M63.4757 33.192C60.8357 33.192 58.7237 32.48 57.1397 31.056L57.9077 29.544C58.7397 30.248 59.5877 30.752 60.4517 31.056C61.3317 31.36 62.3477 31.512 63.4997 31.512C64.8597 31.512 65.9077 31.248 66.6437 30.72C67.3797 30.192 67.7477 29.448 67.7477 28.488C67.7477 27.928 67.5717 27.472 67.2197 27.12C66.8677 26.768 66.4037 26.488 65.8277 26.28C65.2517 26.072 64.4757 25.856 63.4997 25.632C62.1877 25.328 61.1077 25.008 60.2597 24.672C59.4277 24.336 58.7477 23.856 58.2197 23.232C57.7077 22.608 57.4517 21.792 57.4517 20.784C57.4517 19.824 57.6997 18.976 58.1957 18.24C58.7077 17.488 59.4277 16.912 60.3557 16.512C61.2997 16.096 62.3877 15.888 63.6197 15.888C64.7877 15.888 65.8757 16.072 66.8837 16.44C67.9077 16.808 68.7717 17.336 69.4757 18.024L68.7317 19.536C67.9317 18.848 67.1157 18.352 66.2837 18.048C65.4677 17.728 64.5797 17.568 63.6197 17.568C62.3077 17.568 61.2757 17.848 60.5237 18.408C59.7877 18.952 59.4197 19.72 59.4197 20.712C59.4197 21.56 59.7477 22.2 60.4037 22.632C61.0597 23.064 62.0517 23.432 63.3797 23.736C64.8357 24.088 65.9797 24.416 66.8117 24.72C67.6437 25.008 68.3317 25.448 68.8757 26.04C69.4357 26.632 69.7157 27.424 69.7157 28.416C69.7157 29.376 69.4597 30.216 68.9477 30.936C68.4517 31.656 67.7317 32.216 66.7877 32.616C65.8437 33 64.7397 33.192 63.4757 33.192ZM72.9122 33V16.08H74.8802V33H72.9122ZM93.4288 16.08H95.0368V33H93.2368L93.2608 19.896L87.7648 30.312H86.3728L80.8528 19.992L80.8768 33H79.0528V16.08H80.6848L87.0928 28.344L93.4288 16.08ZM99.2325 16.08H105.929C107.705 16.08 109.081 16.512 110.057 17.376C111.049 18.24 111.545 19.464 111.545 21.048C111.545 22.632 111.049 23.864 110.057 24.744C109.065 25.624 107.689 26.064 105.929 26.064H101.201V33H99.2325V16.08ZM105.737 24.432C108.313 24.432 109.601 23.304 109.601 21.048C109.601 18.824 108.313 17.712 105.737 17.712H101.201V24.432H105.737ZM125.833 33L123.961 28.656H115.129L113.257 33H111.241L118.681 16.08H120.385L127.825 33H125.833ZM115.825 27.024H123.265L119.545 18.36L115.825 27.024ZM142.046 16.08H143.894V33H142.382L132.182 19.392V33H130.334V16.08H131.846L142.046 29.688V16.08Z" fill="#050505"/>
</svg>
