<svg width="202" height="50" viewBox="0 0 202 50" fill="none" xmlns="http://www.w3.org/2000/svg">
<rect x="1" y="1" width="200" height="48" rx="23" stroke="#C4C4C4" stroke-width="2"/>
<path d="M79.0864 24.312C80.0624 24.568 80.8144 25.048 81.3424 25.752C81.8864 26.456 82.1584 27.336 82.1584 28.392C82.1584 29.88 81.6704 31.024 80.6944 31.824C79.7184 32.608 78.3344 33 76.5424 33H69.4864V16.08H76.2784C78.0224 16.08 79.3744 16.464 80.3344 17.232C81.2944 18 81.7744 19.088 81.7744 20.496C81.7744 21.408 81.5344 22.192 81.0544 22.848C80.5904 23.504 79.9344 23.992 79.0864 24.312ZM71.4304 23.592H75.9904C77.2544 23.592 78.2064 23.336 78.8464 22.824C79.5024 22.312 79.8304 21.568 79.8304 20.592C79.8304 18.672 78.5504 17.712 75.9904 17.712H71.4304V23.592ZM76.3504 31.368C77.6784 31.368 78.6544 31.128 79.2784 30.648C79.9184 30.152 80.2384 29.384 80.2384 28.344C80.2384 26.264 78.9424 25.224 76.3504 25.224H71.4304V31.368H76.3504ZM98.4303 33L96.5583 28.656H87.7263L85.8543 33H83.8383L91.2783 16.08H92.9823L100.422 33H98.4303ZM88.4223 27.024H95.8623L92.1423 18.36L88.4223 27.024ZM105.02 33V17.76H99.1396V16.08H112.916V17.76H107.012V33H105.02ZM126.227 33L124.355 28.656H115.523L113.651 33H111.635L119.075 16.08H120.779L128.219 33H126.227ZM116.219 27.024H123.659L119.939 18.36L116.219 27.024ZM130.729 33V16.08H132.697V31.32H141.169V33H130.729Z" fill="#C4C4C4"/>
</svg>
