<svg width="202" height="50" viewBox="0 0 202 50" fill="none" xmlns="http://www.w3.org/2000/svg">
<rect width="202" height="50" rx="24" fill="#FF8A00"/>
<path d="M44.4018 33H41.8578L33.1458 24.96V33H31.1778V16.08H33.1458V23.856L41.4498 16.08H43.9458L35.1138 24.312L44.4018 33ZM52.625 33.192C51.057 33.192 49.689 32.84 48.521 32.136C47.369 31.432 46.481 30.432 45.857 29.136C45.233 27.84 44.921 26.312 44.921 24.552C44.921 22.776 45.225 21.24 45.833 19.944C46.457 18.632 47.345 17.632 48.497 16.944C49.665 16.24 51.041 15.888 52.625 15.888C54.209 15.888 55.577 16.24 56.729 16.944C57.897 17.632 58.785 18.632 59.393 19.944C60.017 21.24 60.329 22.768 60.329 24.528C60.329 26.288 60.017 27.824 59.393 29.136C58.769 30.432 57.873 31.432 56.705 32.136C55.553 32.84 54.193 33.192 52.625 33.192ZM52.625 31.512C54.417 31.512 55.809 30.912 56.801 29.712C57.809 28.496 58.313 26.768 58.313 24.528C58.313 22.288 57.817 20.568 56.825 19.368C55.833 18.168 54.433 17.568 52.625 17.568C50.833 17.568 49.433 18.176 48.425 19.392C47.433 20.592 46.937 22.304 46.937 24.528C46.937 26.752 47.433 28.472 48.425 29.688C49.433 30.904 50.833 31.512 52.625 31.512ZM75.5852 16.08H77.4332V33H75.9212L65.7212 19.392V33H63.8732V16.08H65.3852L75.5852 29.688V16.08ZM81.6153 33V16.08H92.0793V17.736H83.5593V23.568H91.5993V25.224H83.5593V33H81.6153ZM94.9747 33V16.08H96.9427V33H94.9747ZM114.435 33H112.275L109.395 27.576C109.043 26.92 108.627 26.472 108.147 26.232C107.683 25.976 107.043 25.848 106.227 25.848H103.059V33H101.115V16.08H108.075C109.915 16.08 111.315 16.488 112.275 17.304C113.251 18.12 113.739 19.32 113.739 20.904C113.739 22.216 113.363 23.28 112.611 24.096C111.875 24.896 110.819 25.4 109.443 25.608C109.875 25.736 110.251 25.952 110.571 26.256C110.907 26.56 111.211 26.968 111.483 27.48L114.435 33ZM107.907 24.216C109.219 24.216 110.195 23.944 110.835 23.4C111.491 22.856 111.819 22.032 111.819 20.928C111.819 19.84 111.499 19.032 110.859 18.504C110.219 17.976 109.235 17.712 107.907 17.712H103.059V24.216H107.907ZM131.944 16.08H133.552V33H131.752L131.776 19.896L126.28 30.312H124.888L119.368 19.992L119.392 33H117.568V16.08H119.2L125.608 28.344L131.944 16.08ZM150.684 33L148.812 28.656H139.98L138.108 33H136.092L143.532 16.08H145.236L152.676 33H150.684ZM140.676 27.024H148.116L144.396 18.36L140.676 27.024ZM160.421 33.192C157.781 33.192 155.669 32.48 154.085 31.056L154.853 29.544C155.685 30.248 156.533 30.752 157.397 31.056C158.277 31.36 159.293 31.512 160.445 31.512C161.805 31.512 162.853 31.248 163.589 30.72C164.325 30.192 164.693 29.448 164.693 28.488C164.693 27.928 164.517 27.472 164.165 27.12C163.813 26.768 163.349 26.488 162.773 26.28C162.197 26.072 161.421 25.856 160.445 25.632C159.133 25.328 158.053 25.008 157.205 24.672C156.373 24.336 155.693 23.856 155.165 23.232C154.653 22.608 154.397 21.792 154.397 20.784C154.397 19.824 154.645 18.976 155.141 18.24C155.653 17.488 156.373 16.912 157.301 16.512C158.245 16.096 159.333 15.888 160.565 15.888C161.733 15.888 162.821 16.072 163.829 16.44C164.853 16.808 165.717 17.336 166.421 18.024L165.677 19.536C164.877 18.848 164.061 18.352 163.229 18.048C162.413 17.728 161.525 17.568 160.565 17.568C159.253 17.568 158.221 17.848 157.469 18.408C156.733 18.952 156.365 19.72 156.365 20.712C156.365 21.56 156.693 22.2 157.349 22.632C158.005 23.064 158.997 23.432 160.325 23.736C161.781 24.088 162.925 24.416 163.757 24.72C164.589 25.008 165.277 25.448 165.821 26.04C166.381 26.632 166.661 27.424 166.661 28.416C166.661 29.376 166.405 30.216 165.893 30.936C165.397 31.656 164.677 32.216 163.733 32.616C162.789 33 161.685 33.192 160.421 33.192ZM169.858 33V16.08H171.826V33H169.858Z" fill="white"/>
</svg>
