<svg width="202" height="50" viewBox="0 0 202 50" fill="none" xmlns="http://www.w3.org/2000/svg">
<rect x="1" y="1" width="200" height="48" rx="23" stroke="#A6A6A6" stroke-width="2"/>
<path d="M68.4292 33H65.8852L57.1732 24.96V33H55.2052V16.08H57.1732V23.856L65.4772 16.08H67.9732L59.1412 24.312L68.4292 33ZM70.2755 33V16.08H80.9795V17.712H72.2195V23.592H80.4995V25.224H72.2195V31.368H80.9795V33H70.2755ZM98.6203 16.08H100.228V33H98.4283L98.4523 19.896L92.9563 30.312H91.5643L86.0443 19.992L86.0683 33H84.2443V16.08H85.8763L92.2843 28.344L98.6203 16.08ZM114.024 24.312C115 24.568 115.752 25.048 116.28 25.752C116.824 26.456 117.096 27.336 117.096 28.392C117.096 29.88 116.608 31.024 115.632 31.824C114.656 32.608 113.272 33 111.48 33H104.424V16.08H111.216C112.96 16.08 114.312 16.464 115.272 17.232C116.232 18 116.712 19.088 116.712 20.496C116.712 21.408 116.472 22.192 115.992 22.848C115.528 23.504 114.872 23.992 114.024 24.312ZM106.368 23.592H110.928C112.192 23.592 113.144 23.336 113.784 22.824C114.44 22.312 114.768 21.568 114.768 20.592C114.768 18.672 113.488 17.712 110.928 17.712H106.368V23.592ZM111.288 31.368C112.616 31.368 113.592 31.128 114.216 30.648C114.856 30.152 115.176 29.384 115.176 28.344C115.176 26.264 113.88 25.224 111.288 25.224H106.368V31.368H111.288ZM133.368 33L131.496 28.656H122.664L120.792 33H118.776L126.216 16.08H127.92L135.36 33H133.368ZM123.36 27.024H130.8L127.08 18.36L123.36 27.024ZM137.869 33V16.08H139.837V31.32H148.309V33H137.869ZM150.83 33V16.08H152.798V33H150.83Z" fill="#A6A6A6"/>
</svg>
