<svg width="202" height="50" viewBox="0 0 202 50" fill="none" xmlns="http://www.w3.org/2000/svg">
<rect width="202" height="50" rx="24" fill="#FF8A00"/>
<path d="M46.3589 32H43.8149L35.1029 23.96V32H33.1349V15.08H35.1029V22.856L43.4069 15.08H45.9029L37.0709 23.312L46.3589 32ZM48.2052 32V15.08H58.9092V16.712H50.1492V22.592H58.4292V24.224H50.1492V30.368H58.9092V32H48.2052ZM75.4939 32H73.3339L70.4539 26.576C70.1019 25.92 69.6859 25.472 69.2059 25.232C68.7419 24.976 68.1019 24.848 67.2859 24.848H64.1179V32H62.1739V15.08H69.1339C70.9739 15.08 72.3739 15.488 73.3339 16.304C74.3099 17.12 74.7979 18.32 74.7979 19.904C74.7979 21.216 74.4219 22.28 73.6699 23.096C72.9339 23.896 71.8779 24.4 70.5019 24.608C70.9339 24.736 71.3099 24.952 71.6299 25.256C71.9659 25.56 72.2699 25.968 72.5419 26.48L75.4939 32ZM68.9659 23.216C70.2779 23.216 71.2539 22.944 71.8939 22.4C72.5499 21.856 72.8779 21.032 72.8779 19.928C72.8779 18.84 72.5579 18.032 71.9179 17.504C71.2779 16.976 70.2939 16.712 68.9659 16.712H64.1179V23.216H68.9659ZM91.4224 32L89.5504 27.656H80.7184L78.8464 32H76.8304L84.2704 15.08H85.9744L93.4144 32H91.4224ZM81.4144 26.024H88.8544L85.1344 17.36L81.4144 26.024ZM107.636 15.08H109.484V32H107.972L97.7719 18.392V32H95.9239V15.08H97.4359L107.636 28.688V15.08ZM111.386 30.512L112.826 30.416C113.626 30.352 114.242 30.072 114.674 29.576C115.122 29.064 115.346 28.368 115.346 27.488V15.08H117.314V27.512C117.314 28.904 116.954 29.992 116.234 30.776C115.514 31.56 114.466 31.992 113.09 32.072L111.53 32.168L111.386 30.512ZM134.43 32L132.558 27.656H123.726L121.854 32H119.838L127.278 15.08H128.982L136.422 32H134.43ZM124.422 26.024H131.862L128.142 17.36L124.422 26.024ZM150.644 15.08H152.492V32H150.98L140.78 18.392V32H138.932V15.08H140.444L150.644 28.688V15.08ZM170.066 23.192V31.016C169.394 31.368 168.514 31.656 167.426 31.88C166.354 32.088 165.266 32.192 164.162 32.192C162.482 32.192 161.034 31.848 159.818 31.16C158.602 30.472 157.666 29.48 157.01 28.184C156.37 26.888 156.05 25.336 156.05 23.528C156.05 21.736 156.37 20.192 157.01 18.896C157.65 17.6 158.57 16.608 159.77 15.92C160.97 15.232 162.386 14.888 164.018 14.888C165.202 14.888 166.29 15.072 167.282 15.44C168.274 15.792 169.122 16.32 169.826 17.024L169.082 18.536C168.266 17.832 167.458 17.328 166.658 17.024C165.874 16.72 164.994 16.568 164.018 16.568C162.114 16.568 160.65 17.168 159.626 18.368C158.602 19.568 158.09 21.288 158.09 23.528C158.09 25.816 158.61 27.56 159.65 28.76C160.69 29.944 162.21 30.536 164.21 30.536C165.666 30.536 167.018 30.32 168.266 29.888V24.728H164.066V23.192H170.066Z" fill="#070707"/>
</svg>
