<svg width="202" height="50" viewBox="0 0 202 50" fill="none" xmlns="http://www.w3.org/2000/svg">
<rect width="202" height="50" rx="24" fill="#FF8A00"/>
<path d="M61.0903 24.312C62.0663 24.568 62.8183 25.048 63.3463 25.752C63.8903 26.456 64.1623 27.336 64.1623 28.392C64.1623 29.88 63.6743 31.024 62.6983 31.824C61.7223 32.608 60.3383 33 58.5463 33H51.4903V16.08H58.2823C60.0263 16.08 61.3783 16.464 62.3383 17.232C63.2983 18 63.7783 19.088 63.7783 20.496C63.7783 21.408 63.5383 22.192 63.0583 22.848C62.5943 23.504 61.9383 23.992 61.0903 24.312ZM53.4343 23.592H57.9943C59.2583 23.592 60.2103 23.336 60.8503 22.824C61.5063 22.312 61.8343 21.568 61.8343 20.592C61.8343 18.672 60.5543 17.712 57.9943 17.712H53.4343V23.592ZM58.3543 31.368C59.6823 31.368 60.6583 31.128 61.2823 30.648C61.9223 30.152 62.2423 29.384 62.2423 28.344C62.2423 26.264 60.9463 25.224 58.3543 25.224H53.4343V31.368H58.3543ZM67.6622 33V16.08H78.3662V17.712H69.6062V23.592H77.8862V25.224H69.6062V31.368H78.3662V33H67.6622ZM81.631 33V16.08H83.599V31.32H92.071V33H81.631ZM107.176 33L105.304 28.656H96.4723L94.6003 33H92.5843L100.024 16.08H101.728L109.168 33H107.176ZM97.1683 27.024H104.608L100.888 18.36L97.1683 27.024ZM123.39 16.08H125.238V33H123.726L113.526 19.392V33H111.678V16.08H113.19L123.39 29.688V16.08ZM127.14 31.512L128.58 31.416C129.38 31.352 129.996 31.072 130.428 30.576C130.876 30.064 131.1 29.368 131.1 28.488V16.08H133.068V28.512C133.068 29.904 132.708 30.992 131.988 31.776C131.268 32.56 130.22 32.992 128.844 33.072L127.284 33.168L127.14 31.512ZM150.184 33L148.312 28.656H139.48L137.608 33H135.592L143.032 16.08H144.736L152.176 33H150.184ZM140.176 27.024H147.616L143.896 18.36L140.176 27.024Z" fill="black"/>
</svg>
