<svg width="202" height="50" viewBox="0 0 202 50" fill="none" xmlns="http://www.w3.org/2000/svg">
<rect x="1" y="1" width="200" height="48" rx="23" stroke="black" stroke-width="2"/>
<path d="M87.688 23.312C88.664 23.568 89.416 24.048 89.944 24.752C90.488 25.456 90.76 26.336 90.76 27.392C90.76 28.88 90.272 30.024 89.296 30.824C88.32 31.608 86.936 32 85.144 32H78.088V15.08H84.88C86.624 15.08 87.976 15.464 88.936 16.232C89.896 17 90.376 18.088 90.376 19.496C90.376 20.408 90.136 21.192 89.656 21.848C89.192 22.504 88.536 22.992 87.688 23.312ZM80.032 22.592H84.592C85.856 22.592 86.808 22.336 87.448 21.824C88.104 21.312 88.432 20.568 88.432 19.592C88.432 17.672 87.152 16.712 84.592 16.712H80.032V22.592ZM84.952 30.368C86.28 30.368 87.256 30.128 87.88 29.648C88.52 29.152 88.84 28.384 88.84 27.344C88.84 25.264 87.544 24.224 84.952 24.224H80.032V30.368H84.952ZM94.2599 32V15.08H104.964V16.712H96.2039V22.592H104.484V24.224H96.2039V30.368H104.964V32H94.2599ZM108.229 32V15.08H110.197V30.32H118.669V32H108.229ZM121.19 32V15.08H123.158V32H121.19Z" fill="#020202"/>
</svg>
