<svg width="23" height="20" viewBox="0 0 23 20" fill="none" xmlns="http://www.w3.org/2000/svg">
<path d="M7.22487 18.7499C15.9045 18.7499 20.6526 12.4961 20.6526 7.08239C20.6526 6.90739 20.6526 6.72989 20.6439 6.55489C21.5683 5.973 22.3661 5.25258 23 4.42739C22.1365 4.75845 21.2215 4.97665 20.2846 5.07489C21.2715 4.56194 22.0106 3.75485 22.3646 2.80364C21.4374 3.28129 20.4226 3.61661 19.3646 3.79489C18.6533 3.13617 17.712 2.69979 16.6866 2.55334C15.6612 2.40689 14.6089 2.55854 13.6927 2.98481C12.7764 3.41108 12.0474 4.08818 11.6185 4.91122C11.1896 5.73425 11.0848 6.65731 11.3203 7.53739C9.444 7.45558 7.60842 7.03172 5.93262 6.29332C4.25682 5.55491 2.77823 4.51844 1.59275 3.25114C0.990926 4.15499 0.807262 5.22414 1.07905 6.24147C1.35085 7.2588 2.05772 8.14805 3.05612 8.72864C2.30796 8.70654 1.57625 8.53184 0.92 8.21864V8.27489C0.92129 9.22174 1.2985 10.1392 1.98788 10.8721C2.67726 11.605 3.63651 12.1085 4.7035 12.2974C4.2985 12.3944 3.88014 12.4428 3.46006 12.4411C3.16391 12.4419 2.86836 12.4181 2.57744 12.3699C2.87901 13.185 3.46621 13.8976 4.25679 14.408C5.04738 14.9184 6.00176 15.201 6.98625 15.2161C5.3138 16.3584 3.24789 16.9779 1.12125 16.9749C0.746524 16.9763 0.372058 16.9575 0 16.9186C2.15843 18.1152 4.66512 18.7506 7.22487 18.7499Z" fill="white"/>
</svg>
