<svg width="514" height="74" viewBox="0 0 514 74" fill="none" xmlns="http://www.w3.org/2000/svg">
<g filter="url(#filter0_d_212_50)">
<rect x="7" y="7" width="500" height="60" rx="10" fill="url(#paint0_linear_212_50)"/>
</g>
<path d="M159.5 20C154.751 20 154.154 20.0219 152.288 20.105C150.422 20.1925 149.151 20.4856 148.037 20.9187C146.87 21.358 145.812 22.0471 144.938 22.9378C144.048 23.8121 143.359 24.8699 142.919 26.0375C142.486 27.1488 142.19 28.4219 142.105 30.2812C142.022 32.1516 142 32.7466 142 37.5022C142 42.2534 142.022 42.8484 142.105 44.7144C142.192 46.5781 142.486 47.8491 142.919 48.9625C143.367 50.1131 143.964 51.0887 144.938 52.0622C145.909 53.0356 146.885 53.635 148.035 54.0812C149.151 54.5144 150.42 54.8097 152.283 54.895C154.152 54.9781 154.747 55 159.5 55C164.253 55 164.846 54.9781 166.714 54.895C168.576 54.8075 169.851 54.5144 170.965 54.0812C172.132 53.6417 173.189 52.9527 174.062 52.0622C175.036 51.0887 175.633 50.1131 176.081 48.9625C176.512 47.8491 176.807 46.5781 176.895 44.7144C176.978 42.8484 177 42.2534 177 37.5C177 32.7466 176.978 32.1516 176.895 30.2834C176.807 28.4219 176.512 27.1488 176.081 26.0375C175.641 24.8699 174.952 23.8121 174.062 22.9378C173.189 22.0468 172.131 21.3577 170.962 20.9187C169.847 20.4856 168.574 20.1903 166.712 20.105C164.844 20.0219 164.251 20 159.496 20H159.502H159.5ZM157.932 23.1544H159.502C164.175 23.1544 164.728 23.1697 166.572 23.255C168.278 23.3316 169.206 23.6181 169.823 23.8566C170.639 24.1738 171.223 24.5544 171.835 25.1669C172.448 25.7794 172.826 26.3613 173.143 27.1794C173.384 27.7941 173.668 28.7216 173.745 30.4278C173.83 32.2719 173.848 32.8253 173.848 37.4956C173.848 42.1659 173.83 42.7216 173.745 44.5656C173.668 46.2719 173.382 47.1972 173.143 47.8141C172.863 48.5739 172.415 49.261 171.833 49.8244C171.221 50.4369 170.639 50.8153 169.821 51.1325C169.208 51.3731 168.281 51.6575 166.572 51.7363C164.728 51.8194 164.175 51.8391 159.502 51.8391C154.83 51.8391 154.274 51.8194 152.43 51.7363C150.724 51.6575 149.798 51.3731 149.182 51.1325C148.421 50.8523 147.734 50.4053 147.169 49.8244C146.587 49.2601 146.138 48.5724 145.857 47.8119C145.618 47.1972 145.332 46.2697 145.255 44.5634C145.172 42.7194 145.154 42.1659 145.154 37.4912C145.154 32.8187 145.172 32.2675 145.255 30.4234C145.334 28.7172 145.618 27.7897 145.859 27.1728C146.176 26.3569 146.557 25.7728 147.169 25.1603C147.782 24.5478 148.363 24.1694 149.182 23.8522C149.798 23.6116 150.724 23.3272 152.43 23.2484C154.044 23.1741 154.67 23.1522 157.932 23.15V23.1544V23.1544ZM168.843 26.0594C168.567 26.0594 168.294 26.1137 168.039 26.2192C167.784 26.3248 167.553 26.4794 167.358 26.6745C167.163 26.8695 167.008 27.101 166.903 27.3557C166.797 27.6105 166.743 27.8836 166.743 28.1594C166.743 28.4352 166.797 28.7082 166.903 28.963C167.008 29.2178 167.163 29.4493 167.358 29.6443C167.553 29.8393 167.784 29.994 168.039 30.0995C168.294 30.2051 168.567 30.2594 168.843 30.2594C169.4 30.2594 169.934 30.0381 170.328 29.6443C170.722 29.2505 170.943 28.7163 170.943 28.1594C170.943 27.6024 170.722 27.0683 170.328 26.6745C169.934 26.2806 169.4 26.0594 168.843 26.0594V26.0594ZM159.502 28.5137C158.31 28.4952 157.126 28.7139 156.02 29.1572C154.913 29.6005 153.906 30.2595 153.056 31.0959C152.206 31.9323 151.532 32.9294 151.071 34.029C150.611 35.1286 150.374 36.3089 150.374 37.5011C150.374 38.6933 150.611 39.8735 151.071 40.9732C151.532 42.0728 152.206 43.0699 153.056 43.9063C153.906 44.7427 154.913 45.4017 156.02 45.845C157.126 46.2883 158.31 46.507 159.502 46.4884C161.861 46.4516 164.112 45.4886 165.767 43.8071C167.423 42.1257 168.35 39.8607 168.35 37.5011C168.35 35.1415 167.423 32.8765 165.767 31.1951C164.112 29.5136 161.861 28.5506 159.502 28.5137V28.5137ZM159.502 31.6659C161.049 31.6659 162.533 32.2806 163.627 33.3747C164.722 34.4688 165.336 35.9527 165.336 37.5C165.336 39.0473 164.722 40.5312 163.627 41.6253C162.533 42.7194 161.049 43.3341 159.502 43.3341C157.955 43.3341 156.471 42.7194 155.377 41.6253C154.283 40.5312 153.668 39.0473 153.668 37.5C153.668 35.9527 154.283 34.4688 155.377 33.3747C156.471 32.2806 157.955 31.6659 159.502 31.6659V31.6659Z" fill="white"/>
<path d="M192.5 44V29.9H194.12V44H192.5ZM201.188 44.14C200.268 44.14 199.455 43.9333 198.748 43.52C198.055 43.1067 197.515 42.52 197.128 41.76C196.755 40.9867 196.568 40.0933 196.568 39.08C196.568 38.0667 196.755 37.18 197.128 36.42C197.515 35.6467 198.055 35.0533 198.748 34.64C199.455 34.2267 200.268 34.02 201.188 34.02C202.108 34.02 202.922 34.2267 203.628 34.64C204.335 35.0533 204.875 35.6467 205.248 36.42C205.635 37.18 205.828 38.0667 205.828 39.08C205.828 40.0933 205.635 40.9867 205.248 41.76C204.875 42.52 204.335 43.1067 203.628 43.52C202.922 43.9333 202.108 44.14 201.188 44.14ZM201.188 42.8C202.148 42.8 202.882 42.4867 203.388 41.86C203.908 41.22 204.168 40.2933 204.168 39.08C204.168 37.8933 203.908 36.98 203.388 36.34C202.868 35.6867 202.135 35.36 201.188 35.36C200.242 35.36 199.508 35.6867 198.988 36.34C198.468 36.98 198.208 37.8933 198.208 39.08C198.208 40.28 198.462 41.2 198.968 41.84C199.488 42.48 200.228 42.8 201.188 42.8ZM216.962 34.26V43.34C216.962 44.7933 216.589 45.8867 215.842 46.62C215.096 47.3667 213.989 47.74 212.522 47.74C210.816 47.74 209.382 47.3 208.222 46.42L208.762 45.22C209.416 45.6467 210.029 45.9533 210.602 46.14C211.176 46.3267 211.816 46.42 212.522 46.42C213.456 46.42 214.162 46.1667 214.642 45.66C215.122 45.1667 215.362 44.44 215.362 43.48V41.76C215.082 42.3867 214.649 42.8667 214.062 43.2C213.489 43.5333 212.809 43.7 212.022 43.7C211.169 43.7 210.409 43.5 209.742 43.1C209.089 42.7 208.576 42.1333 208.202 41.4C207.842 40.6667 207.662 39.82 207.662 38.86C207.662 37.9 207.842 37.0533 208.202 36.32C208.576 35.5867 209.089 35.02 209.742 34.62C210.409 34.22 211.169 34.02 212.022 34.02C212.796 34.02 213.469 34.1867 214.042 34.52C214.616 34.8533 215.049 35.3267 215.342 35.94V34.26H216.962ZM212.342 42.36C213.276 42.36 214.009 42.0533 214.542 41.44C215.076 40.8133 215.342 39.9533 215.342 38.86C215.342 37.78 215.076 36.9333 214.542 36.32C214.022 35.6933 213.289 35.38 212.342 35.38C211.396 35.38 210.649 35.6933 210.102 36.32C209.569 36.9333 209.302 37.78 209.302 38.86C209.302 39.9533 209.569 40.8133 210.102 41.44C210.649 42.0533 211.396 42.36 212.342 42.36ZM219.961 44V34.26H221.581V44H219.961ZM219.801 30.04H221.761V31.86H219.801V30.04ZM229.509 34.02C231.843 34.02 233.009 35.3067 233.009 37.88V44H231.389V37.98C231.389 37.0733 231.209 36.4133 230.849 36C230.503 35.5867 229.943 35.38 229.169 35.38C228.276 35.38 227.563 35.6533 227.029 36.2C226.496 36.7467 226.229 37.4867 226.229 38.42V44H224.609V34.26H226.209V35.86C226.529 35.26 226.976 34.8067 227.549 34.5C228.123 34.18 228.776 34.02 229.509 34.02ZM249.773 29.9V44H248.153V42.22C247.859 42.8333 247.426 43.3067 246.853 43.64C246.293 43.9733 245.633 44.14 244.873 44.14C244.019 44.14 243.266 43.9267 242.613 43.5C241.959 43.0733 241.453 42.48 241.093 41.72C240.733 40.9467 240.553 40.0533 240.553 39.04C240.553 38.04 240.733 37.16 241.093 36.4C241.453 35.64 241.959 35.0533 242.613 34.64C243.266 34.2267 244.019 34.02 244.873 34.02C245.633 34.02 246.293 34.1867 246.853 34.52C247.426 34.8533 247.859 35.3267 248.153 35.94V29.9H249.773ZM245.193 42.8C246.139 42.8 246.866 42.48 247.373 41.84C247.893 41.1867 248.153 40.2667 248.153 39.08C248.153 37.8933 247.893 36.98 247.373 36.34C246.866 35.7 246.139 35.38 245.193 35.38C244.246 35.38 243.506 35.7 242.973 36.34C242.453 36.98 242.193 37.88 242.193 39.04C242.193 40.2267 242.453 41.1533 242.973 41.82C243.506 42.4733 244.246 42.8 245.193 42.8ZM260.933 39.38H253.813C253.867 40.5133 254.173 41.3733 254.733 41.96C255.293 42.5333 256.087 42.82 257.113 42.82C258.247 42.82 259.287 42.4333 260.233 41.66L260.773 42.84C260.347 43.24 259.8 43.56 259.133 43.8C258.467 44.0267 257.787 44.14 257.093 44.14C255.573 44.14 254.373 43.6933 253.493 42.8C252.627 41.9067 252.193 40.6733 252.193 39.1C252.193 38.1 252.387 37.22 252.773 36.46C253.16 35.6867 253.7 35.0867 254.393 34.66C255.1 34.2333 255.9 34.02 256.793 34.02C258.087 34.02 259.1 34.4467 259.833 35.3C260.567 36.14 260.933 37.3 260.933 38.78V39.38ZM256.813 35.28C255.96 35.28 255.273 35.5467 254.753 36.08C254.247 36.6133 253.947 37.3667 253.853 38.34H259.513C259.487 37.3533 259.24 36.6 258.773 36.08C258.307 35.5467 257.653 35.28 256.813 35.28ZM268.22 34.02C270.554 34.02 271.72 35.3067 271.72 37.88V44H270.1V37.98C270.1 37.0733 269.92 36.4133 269.56 36C269.214 35.5867 268.654 35.38 267.88 35.38C266.987 35.38 266.274 35.6533 265.74 36.2C265.207 36.7467 264.94 37.4867 264.94 38.42V44H263.32V34.26H264.92V35.86C265.24 35.26 265.687 34.8067 266.26 34.5C266.834 34.18 267.487 34.02 268.22 34.02ZM283.408 34.26V43.34C283.408 44.7933 283.034 45.8867 282.288 46.62C281.541 47.3667 280.434 47.74 278.968 47.74C277.261 47.74 275.828 47.3 274.668 46.42L275.208 45.22C275.861 45.6467 276.474 45.9533 277.048 46.14C277.621 46.3267 278.261 46.42 278.968 46.42C279.901 46.42 280.608 46.1667 281.088 45.66C281.568 45.1667 281.808 44.44 281.808 43.48V41.76C281.528 42.3867 281.094 42.8667 280.508 43.2C279.934 43.5333 279.254 43.7 278.467 43.7C277.614 43.7 276.854 43.5 276.188 43.1C275.534 42.7 275.021 42.1333 274.648 41.4C274.288 40.6667 274.108 39.82 274.108 38.86C274.108 37.9 274.288 37.0533 274.648 36.32C275.021 35.5867 275.534 35.02 276.188 34.62C276.854 34.22 277.614 34.02 278.467 34.02C279.241 34.02 279.914 34.1867 280.488 34.52C281.061 34.8533 281.494 35.3267 281.788 35.94V34.26H283.408ZM278.788 42.36C279.721 42.36 280.454 42.0533 280.988 41.44C281.521 40.8133 281.788 39.9533 281.788 38.86C281.788 37.78 281.521 36.9333 280.988 36.32C280.468 35.6933 279.734 35.38 278.788 35.38C277.841 35.38 277.094 35.6933 276.548 36.32C276.014 36.9333 275.748 37.78 275.748 38.86C275.748 39.9533 276.014 40.8133 276.548 41.44C277.094 42.0533 277.841 42.36 278.788 42.36ZM290.366 34.02C291.606 34.02 292.526 34.34 293.126 34.98C293.74 35.6067 294.046 36.5667 294.046 37.86V44H292.466V42.34C292.213 42.9133 291.826 43.36 291.306 43.68C290.786 43.9867 290.186 44.14 289.506 44.14C288.88 44.14 288.3 44.0133 287.766 43.76C287.246 43.5067 286.833 43.1533 286.526 42.7C286.22 42.2467 286.066 41.7467 286.066 41.2C286.066 40.4667 286.253 39.9 286.626 39.5C287 39.0867 287.613 38.7933 288.466 38.62C289.32 38.4333 290.506 38.34 292.026 38.34H292.466V37.68C292.466 36.8667 292.3 36.28 291.966 35.92C291.633 35.5467 291.093 35.36 290.346 35.36C289.226 35.36 288.113 35.7067 287.006 36.4L286.466 35.22C286.973 34.86 287.58 34.5733 288.286 34.36C289.006 34.1333 289.7 34.02 290.366 34.02ZM289.726 42.86C290.526 42.86 291.18 42.5933 291.686 42.06C292.206 41.5133 292.466 40.8133 292.466 39.96V39.38H292.106C290.933 39.38 290.04 39.4333 289.426 39.54C288.813 39.6333 288.373 39.8 288.106 40.04C287.853 40.2667 287.726 40.6067 287.726 41.06C287.726 41.58 287.913 42.0133 288.286 42.36C288.673 42.6933 289.153 42.86 289.726 42.86ZM301.912 34.02C304.245 34.02 305.412 35.3067 305.412 37.88V44H303.792V37.98C303.792 37.0733 303.612 36.4133 303.252 36C302.905 35.5867 302.345 35.38 301.572 35.38C300.678 35.38 299.965 35.6533 299.432 36.2C298.898 36.7467 298.632 37.4867 298.632 38.42V44H297.012V34.26H298.612V35.86C298.932 35.26 299.378 34.8067 299.952 34.5C300.525 34.18 301.178 34.02 301.912 34.02ZM313.535 44V34.26H315.155V44H313.535ZM313.375 30.04H315.335V31.86H313.375V30.04ZM323.084 34.02C325.417 34.02 326.584 35.3067 326.584 37.88V44H324.964V37.98C324.964 37.0733 324.784 36.4133 324.424 36C324.077 35.5867 323.517 35.38 322.744 35.38C321.85 35.38 321.137 35.6533 320.604 36.2C320.07 36.7467 319.804 37.4867 319.804 38.42V44H318.184V34.26H319.784V35.86C320.104 35.26 320.55 34.8067 321.124 34.5C321.697 34.18 322.35 34.02 323.084 34.02ZM332.851 44.14C331.211 44.14 329.911 43.72 328.951 42.88L329.491 41.68C330.011 42.0933 330.537 42.3933 331.071 42.58C331.617 42.7533 332.231 42.84 332.911 42.84C333.631 42.84 334.177 42.72 334.551 42.48C334.937 42.2267 335.131 41.8667 335.131 41.4C335.131 41.0133 335.004 40.7067 334.751 40.48C334.497 40.2533 334.077 40.0733 333.491 39.94L331.851 39.56C331.024 39.3733 330.391 39.0533 329.951 38.6C329.511 38.1467 329.291 37.5867 329.291 36.92C329.291 36.0533 329.631 35.3533 330.311 34.82C330.991 34.2867 331.897 34.02 333.031 34.02C333.711 34.02 334.357 34.1333 334.971 34.36C335.584 34.5733 336.097 34.8867 336.511 35.3L335.971 36.48C335.077 35.72 334.097 35.34 333.031 35.34C332.351 35.34 331.817 35.4733 331.431 35.74C331.057 35.9933 330.871 36.3533 330.871 36.82C330.871 37.2067 330.984 37.52 331.211 37.76C331.451 37.9867 331.831 38.16 332.351 38.28L334.011 38.68C334.917 38.8933 335.591 39.22 336.031 39.66C336.471 40.0867 336.691 40.6467 336.691 41.34C336.691 42.1933 336.344 42.8733 335.651 43.38C334.971 43.8867 334.037 44.14 332.851 44.14ZM343.343 42.84C343.636 42.84 343.929 42.82 344.223 42.78L344.143 44.06C343.836 44.1133 343.503 44.14 343.143 44.14C341.969 44.14 341.083 43.8333 340.483 43.22C339.896 42.6067 339.603 41.7533 339.603 40.66V35.54H337.703V34.26H339.603V31.3H341.223V34.26H343.983V35.54H341.223V40.54C341.223 42.0733 341.929 42.84 343.343 42.84ZM349.819 34.02C351.059 34.02 351.979 34.34 352.579 34.98C353.193 35.6067 353.499 36.5667 353.499 37.86V44H351.919V42.34C351.666 42.9133 351.279 43.36 350.759 43.68C350.239 43.9867 349.639 44.14 348.959 44.14C348.333 44.14 347.753 44.0133 347.219 43.76C346.699 43.5067 346.286 43.1533 345.979 42.7C345.673 42.2467 345.519 41.7467 345.519 41.2C345.519 40.4667 345.706 39.9 346.079 39.5C346.453 39.0867 347.066 38.7933 347.919 38.62C348.773 38.4333 349.959 38.34 351.479 38.34H351.919V37.68C351.919 36.8667 351.753 36.28 351.419 35.92C351.086 35.5467 350.546 35.36 349.799 35.36C348.679 35.36 347.566 35.7067 346.459 36.4L345.919 35.22C346.426 34.86 347.033 34.5733 347.739 34.36C348.459 34.1333 349.153 34.02 349.819 34.02ZM349.179 42.86C349.979 42.86 350.633 42.5933 351.139 42.06C351.659 41.5133 351.919 40.8133 351.919 39.96V39.38H351.559C350.386 39.38 349.493 39.4333 348.879 39.54C348.266 39.6333 347.826 39.8 347.559 40.04C347.306 40.2667 347.179 40.6067 347.179 41.06C347.179 41.58 347.366 42.0133 347.739 42.36C348.126 42.6933 348.606 42.86 349.179 42.86ZM365.185 34.26V43.34C365.185 44.7933 364.812 45.8867 364.065 46.62C363.318 47.3667 362.212 47.74 360.745 47.74C359.038 47.74 357.605 47.3 356.445 46.42L356.985 45.22C357.638 45.6467 358.252 45.9533 358.825 46.14C359.398 46.3267 360.038 46.42 360.745 46.42C361.678 46.42 362.385 46.1667 362.865 45.66C363.345 45.1667 363.585 44.44 363.585 43.48V41.76C363.305 42.3867 362.872 42.8667 362.285 43.2C361.712 43.5333 361.032 43.7 360.245 43.7C359.392 43.7 358.632 43.5 357.965 43.1C357.312 42.7 356.798 42.1333 356.425 41.4C356.065 40.6667 355.885 39.82 355.885 38.86C355.885 37.9 356.065 37.0533 356.425 36.32C356.798 35.5867 357.312 35.02 357.965 34.62C358.632 34.22 359.392 34.02 360.245 34.02C361.018 34.02 361.692 34.1867 362.265 34.52C362.838 34.8533 363.272 35.3267 363.565 35.94V34.26H365.185ZM360.565 42.36C361.498 42.36 362.232 42.0533 362.765 41.44C363.298 40.8133 363.565 39.9533 363.565 38.86C363.565 37.78 363.298 36.9333 362.765 36.32C362.245 35.6933 361.512 35.38 360.565 35.38C359.618 35.38 358.872 35.6933 358.325 36.32C357.792 36.9333 357.525 37.78 357.525 38.86C357.525 39.9533 357.792 40.8133 358.325 41.44C358.872 42.0533 359.618 42.36 360.565 42.36ZM373.704 35.42L372.644 35.52C371.644 35.6133 370.917 35.9267 370.464 36.46C370.024 36.9933 369.804 37.6533 369.804 38.44V44H368.184V34.26H369.764V35.96C370.31 34.8267 371.384 34.1933 372.984 34.06L373.564 34.02L373.704 35.42ZM379.116 34.02C380.356 34.02 381.276 34.34 381.876 34.98C382.49 35.6067 382.796 36.5667 382.796 37.86V44H381.216V42.34C380.963 42.9133 380.576 43.36 380.056 43.68C379.536 43.9867 378.936 44.14 378.256 44.14C377.63 44.14 377.05 44.0133 376.516 43.76C375.996 43.5067 375.583 43.1533 375.276 42.7C374.97 42.2467 374.816 41.7467 374.816 41.2C374.816 40.4667 375.003 39.9 375.376 39.5C375.75 39.0867 376.363 38.7933 377.216 38.62C378.07 38.4333 379.256 38.34 380.776 38.34H381.216V37.68C381.216 36.8667 381.05 36.28 380.716 35.92C380.383 35.5467 379.843 35.36 379.096 35.36C377.976 35.36 376.863 35.7067 375.756 36.4L375.216 35.22C375.723 34.86 376.33 34.5733 377.036 34.36C377.756 34.1333 378.45 34.02 379.116 34.02ZM378.476 42.86C379.276 42.86 379.93 42.5933 380.436 42.06C380.956 41.5133 381.216 40.8133 381.216 39.96V39.38H380.856C379.683 39.38 378.79 39.4333 378.176 39.54C377.563 39.6333 377.123 39.8 376.856 40.04C376.603 40.2667 376.476 40.6067 376.476 41.06C376.476 41.58 376.663 42.0133 377.036 42.36C377.423 42.6933 377.903 42.86 378.476 42.86ZM396.602 34.02C398.762 34.02 399.842 35.3067 399.842 37.88V44H398.222V37.96C398.222 37.0667 398.062 36.4133 397.742 36C397.435 35.5867 396.935 35.38 396.242 35.38C395.428 35.38 394.788 35.6533 394.322 36.2C393.855 36.7467 393.622 37.4933 393.622 38.44V44H392.002V37.96C392.002 37.0533 391.842 36.4 391.522 36C391.202 35.5867 390.695 35.38 390.002 35.38C389.188 35.38 388.548 35.6533 388.082 36.2C387.615 36.7467 387.382 37.4933 387.382 38.44V44H385.762V34.26H387.362V35.8C387.655 35.2267 388.062 34.7867 388.582 34.48C389.102 34.1733 389.702 34.02 390.382 34.02C391.888 34.02 392.882 34.66 393.362 35.94C393.642 35.34 394.068 34.8733 394.642 34.54C395.215 34.1933 395.868 34.02 396.602 34.02Z" fill="white"/>
<defs>
<filter id="filter0_d_212_50" x="0" y="0" width="514" height="74" filterUnits="userSpaceOnUse" color-interpolation-filters="sRGB">
<feFlood flood-opacity="0" result="BackgroundImageFix"/>
<feColorMatrix in="SourceAlpha" type="matrix" values="0 0 0 0 0 0 0 0 0 0 0 0 0 0 0 0 0 0 127 0" result="hardAlpha"/>
<feOffset/>
<feGaussianBlur stdDeviation="3.5"/>
<feComposite in2="hardAlpha" operator="out"/>
<feColorMatrix type="matrix" values="0 0 0 0 0 0 0 0 0 0 0 0 0 0 0 0 0 0 0.25 0"/>
<feBlend mode="normal" in2="BackgroundImageFix" result="effect1_dropShadow_212_50"/>
<feBlend mode="normal" in="SourceGraphic" in2="effect1_dropShadow_212_50" result="shape"/>
</filter>
<linearGradient id="paint0_linear_212_50" x1="560" y1="-59.4" x2="12.7357" y2="168.43" gradientUnits="userSpaceOnUse">
<stop stop-color="#405DE6"/>
<stop offset="0.135417" stop-color="#5851DB"/>
<stop offset="0.28125" stop-color="#833AB4"/>
<stop offset="0.416667" stop-color="#C13584"/>
<stop offset="0.546875" stop-color="#E1306C"/>
<stop offset="0.682292" stop-color="#F77737"/>
<stop offset="0.822917" stop-color="#FCAF45"/>
<stop offset="0.958333" stop-color="#FFDC80"/>
</linearGradient>
</defs>
</svg>
