<svg width="514" height="74" viewBox="0 0 514 74" fill="none" xmlns="http://www.w3.org/2000/svg">
<g filter="url(#filter0_d_212_49)">
<rect x="7" y="7" width="500" height="60" rx="10" fill="#4267B2"/>
</g>
<path d="M177 37.6072C177 27.8828 169.165 20 159.502 20C149.835 20.0022 142 27.8828 142 37.6094C142 46.3955 148.4 53.6789 156.764 55V42.6969H152.324V37.6094H156.768V33.727C156.768 29.3154 159.382 26.8788 163.378 26.8788C165.294 26.8788 167.295 27.2222 167.295 27.2222V31.5529H165.088C162.916 31.5529 162.238 32.9112 162.238 34.3045V37.6072H167.09L166.315 42.6947H162.236V54.9978C170.6 53.6767 177 46.3933 177 37.6072Z" fill="white"/>
<path d="M192.5 44V29.9H194.12V44H192.5ZM201.188 44.14C200.268 44.14 199.455 43.9333 198.748 43.52C198.055 43.1067 197.515 42.52 197.128 41.76C196.755 40.9867 196.568 40.0933 196.568 39.08C196.568 38.0667 196.755 37.18 197.128 36.42C197.515 35.6467 198.055 35.0533 198.748 34.64C199.455 34.2267 200.268 34.02 201.188 34.02C202.108 34.02 202.922 34.2267 203.628 34.64C204.335 35.0533 204.875 35.6467 205.248 36.42C205.635 37.18 205.828 38.0667 205.828 39.08C205.828 40.0933 205.635 40.9867 205.248 41.76C204.875 42.52 204.335 43.1067 203.628 43.52C202.922 43.9333 202.108 44.14 201.188 44.14ZM201.188 42.8C202.148 42.8 202.882 42.4867 203.388 41.86C203.908 41.22 204.168 40.2933 204.168 39.08C204.168 37.8933 203.908 36.98 203.388 36.34C202.868 35.6867 202.135 35.36 201.188 35.36C200.242 35.36 199.508 35.6867 198.988 36.34C198.468 36.98 198.208 37.8933 198.208 39.08C198.208 40.28 198.462 41.2 198.968 41.84C199.488 42.48 200.228 42.8 201.188 42.8ZM216.962 34.26V43.34C216.962 44.7933 216.589 45.8867 215.842 46.62C215.096 47.3667 213.989 47.74 212.522 47.74C210.816 47.74 209.382 47.3 208.222 46.42L208.762 45.22C209.416 45.6467 210.029 45.9533 210.602 46.14C211.176 46.3267 211.816 46.42 212.522 46.42C213.456 46.42 214.162 46.1667 214.642 45.66C215.122 45.1667 215.362 44.44 215.362 43.48V41.76C215.082 42.3867 214.649 42.8667 214.062 43.2C213.489 43.5333 212.809 43.7 212.022 43.7C211.169 43.7 210.409 43.5 209.742 43.1C209.089 42.7 208.576 42.1333 208.202 41.4C207.842 40.6667 207.662 39.82 207.662 38.86C207.662 37.9 207.842 37.0533 208.202 36.32C208.576 35.5867 209.089 35.02 209.742 34.62C210.409 34.22 211.169 34.02 212.022 34.02C212.796 34.02 213.469 34.1867 214.042 34.52C214.616 34.8533 215.049 35.3267 215.342 35.94V34.26H216.962ZM212.342 42.36C213.276 42.36 214.009 42.0533 214.542 41.44C215.076 40.8133 215.342 39.9533 215.342 38.86C215.342 37.78 215.076 36.9333 214.542 36.32C214.022 35.6933 213.289 35.38 212.342 35.38C211.396 35.38 210.649 35.6933 210.102 36.32C209.569 36.9333 209.302 37.78 209.302 38.86C209.302 39.9533 209.569 40.8133 210.102 41.44C210.649 42.0533 211.396 42.36 212.342 42.36ZM219.961 44V34.26H221.581V44H219.961ZM219.801 30.04H221.761V31.86H219.801V30.04ZM229.509 34.02C231.843 34.02 233.009 35.3067 233.009 37.88V44H231.389V37.98C231.389 37.0733 231.209 36.4133 230.849 36C230.503 35.5867 229.943 35.38 229.169 35.38C228.276 35.38 227.563 35.6533 227.029 36.2C226.496 36.7467 226.229 37.4867 226.229 38.42V44H224.609V34.26H226.209V35.86C226.529 35.26 226.976 34.8067 227.549 34.5C228.123 34.18 228.776 34.02 229.509 34.02ZM249.773 29.9V44H248.153V42.22C247.859 42.8333 247.426 43.3067 246.853 43.64C246.293 43.9733 245.633 44.14 244.873 44.14C244.019 44.14 243.266 43.9267 242.613 43.5C241.959 43.0733 241.453 42.48 241.093 41.72C240.733 40.9467 240.553 40.0533 240.553 39.04C240.553 38.04 240.733 37.16 241.093 36.4C241.453 35.64 241.959 35.0533 242.613 34.64C243.266 34.2267 244.019 34.02 244.873 34.02C245.633 34.02 246.293 34.1867 246.853 34.52C247.426 34.8533 247.859 35.3267 248.153 35.94V29.9H249.773ZM245.193 42.8C246.139 42.8 246.866 42.48 247.373 41.84C247.893 41.1867 248.153 40.2667 248.153 39.08C248.153 37.8933 247.893 36.98 247.373 36.34C246.866 35.7 246.139 35.38 245.193 35.38C244.246 35.38 243.506 35.7 242.973 36.34C242.453 36.98 242.193 37.88 242.193 39.04C242.193 40.2267 242.453 41.1533 242.973 41.82C243.506 42.4733 244.246 42.8 245.193 42.8ZM260.933 39.38H253.813C253.867 40.5133 254.173 41.3733 254.733 41.96C255.293 42.5333 256.087 42.82 257.113 42.82C258.247 42.82 259.287 42.4333 260.233 41.66L260.773 42.84C260.347 43.24 259.8 43.56 259.133 43.8C258.467 44.0267 257.787 44.14 257.093 44.14C255.573 44.14 254.373 43.6933 253.493 42.8C252.627 41.9067 252.193 40.6733 252.193 39.1C252.193 38.1 252.387 37.22 252.773 36.46C253.16 35.6867 253.7 35.0867 254.393 34.66C255.1 34.2333 255.9 34.02 256.793 34.02C258.087 34.02 259.1 34.4467 259.833 35.3C260.567 36.14 260.933 37.3 260.933 38.78V39.38ZM256.813 35.28C255.96 35.28 255.273 35.5467 254.753 36.08C254.247 36.6133 253.947 37.3667 253.853 38.34H259.513C259.487 37.3533 259.24 36.6 258.773 36.08C258.307 35.5467 257.653 35.28 256.813 35.28ZM268.22 34.02C270.554 34.02 271.72 35.3067 271.72 37.88V44H270.1V37.98C270.1 37.0733 269.92 36.4133 269.56 36C269.214 35.5867 268.654 35.38 267.88 35.38C266.987 35.38 266.274 35.6533 265.74 36.2C265.207 36.7467 264.94 37.4867 264.94 38.42V44H263.32V34.26H264.92V35.86C265.24 35.26 265.687 34.8067 266.26 34.5C266.834 34.18 267.487 34.02 268.22 34.02ZM283.408 34.26V43.34C283.408 44.7933 283.034 45.8867 282.288 46.62C281.541 47.3667 280.434 47.74 278.968 47.74C277.261 47.74 275.828 47.3 274.668 46.42L275.208 45.22C275.861 45.6467 276.474 45.9533 277.048 46.14C277.621 46.3267 278.261 46.42 278.968 46.42C279.901 46.42 280.608 46.1667 281.088 45.66C281.568 45.1667 281.808 44.44 281.808 43.48V41.76C281.528 42.3867 281.094 42.8667 280.508 43.2C279.934 43.5333 279.254 43.7 278.467 43.7C277.614 43.7 276.854 43.5 276.188 43.1C275.534 42.7 275.021 42.1333 274.648 41.4C274.288 40.6667 274.108 39.82 274.108 38.86C274.108 37.9 274.288 37.0533 274.648 36.32C275.021 35.5867 275.534 35.02 276.188 34.62C276.854 34.22 277.614 34.02 278.467 34.02C279.241 34.02 279.914 34.1867 280.488 34.52C281.061 34.8533 281.494 35.3267 281.788 35.94V34.26H283.408ZM278.788 42.36C279.721 42.36 280.454 42.0533 280.988 41.44C281.521 40.8133 281.788 39.9533 281.788 38.86C281.788 37.78 281.521 36.9333 280.988 36.32C280.468 35.6933 279.734 35.38 278.788 35.38C277.841 35.38 277.094 35.6933 276.548 36.32C276.014 36.9333 275.748 37.78 275.748 38.86C275.748 39.9533 276.014 40.8133 276.548 41.44C277.094 42.0533 277.841 42.36 278.788 42.36ZM290.366 34.02C291.606 34.02 292.526 34.34 293.126 34.98C293.74 35.6067 294.046 36.5667 294.046 37.86V44H292.466V42.34C292.213 42.9133 291.826 43.36 291.306 43.68C290.786 43.9867 290.186 44.14 289.506 44.14C288.88 44.14 288.3 44.0133 287.766 43.76C287.246 43.5067 286.833 43.1533 286.526 42.7C286.22 42.2467 286.066 41.7467 286.066 41.2C286.066 40.4667 286.253 39.9 286.626 39.5C287 39.0867 287.613 38.7933 288.466 38.62C289.32 38.4333 290.506 38.34 292.026 38.34H292.466V37.68C292.466 36.8667 292.3 36.28 291.966 35.92C291.633 35.5467 291.093 35.36 290.346 35.36C289.226 35.36 288.113 35.7067 287.006 36.4L286.466 35.22C286.973 34.86 287.58 34.5733 288.286 34.36C289.006 34.1333 289.7 34.02 290.366 34.02ZM289.726 42.86C290.526 42.86 291.18 42.5933 291.686 42.06C292.206 41.5133 292.466 40.8133 292.466 39.96V39.38H292.106C290.933 39.38 290.04 39.4333 289.426 39.54C288.813 39.6333 288.373 39.8 288.106 40.04C287.853 40.2667 287.726 40.6067 287.726 41.06C287.726 41.58 287.913 42.0133 288.286 42.36C288.673 42.6933 289.153 42.86 289.726 42.86ZM301.912 34.02C304.245 34.02 305.412 35.3067 305.412 37.88V44H303.792V37.98C303.792 37.0733 303.612 36.4133 303.252 36C302.905 35.5867 302.345 35.38 301.572 35.38C300.678 35.38 299.965 35.6533 299.432 36.2C298.898 36.7467 298.632 37.4867 298.632 38.42V44H297.012V34.26H298.612V35.86C298.932 35.26 299.378 34.8067 299.952 34.5C300.525 34.18 301.178 34.02 301.912 34.02ZM315.695 34.26H318.455V35.54H315.695V44H314.075V35.54H312.175V34.26H314.075V33.94C314.075 32.6467 314.395 31.6667 315.035 31C315.688 30.3333 316.688 29.96 318.035 29.88L318.835 29.84L318.955 31.1L318.035 31.16C317.222 31.2133 316.628 31.4467 316.255 31.86C315.882 32.26 315.695 32.88 315.695 33.72V34.26ZM323.96 34.02C325.2 34.02 326.12 34.34 326.72 34.98C327.333 35.6067 327.64 36.5667 327.64 37.86V44H326.06V42.34C325.807 42.9133 325.42 43.36 324.9 43.68C324.38 43.9867 323.78 44.14 323.1 44.14C322.473 44.14 321.893 44.0133 321.36 43.76C320.84 43.5067 320.427 43.1533 320.12 42.7C319.813 42.2467 319.66 41.7467 319.66 41.2C319.66 40.4667 319.847 39.9 320.22 39.5C320.593 39.0867 321.207 38.7933 322.06 38.62C322.913 38.4333 324.1 38.34 325.62 38.34H326.06V37.68C326.06 36.8667 325.893 36.28 325.56 35.92C325.227 35.5467 324.687 35.36 323.94 35.36C322.82 35.36 321.707 35.7067 320.6 36.4L320.06 35.22C320.567 34.86 321.173 34.5733 321.88 34.36C322.6 34.1333 323.293 34.02 323.96 34.02ZM323.32 42.86C324.12 42.86 324.773 42.5933 325.28 42.06C325.8 41.5133 326.06 40.8133 326.06 39.96V39.38H325.7C324.527 39.38 323.633 39.4333 323.02 39.54C322.407 39.6333 321.967 39.8 321.7 40.04C321.447 40.2667 321.32 40.6067 321.32 41.06C321.32 41.58 321.507 42.0133 321.88 42.36C322.267 42.6933 322.747 42.86 323.32 42.86ZM334.725 44.14C333.765 44.14 332.932 43.9333 332.225 43.52C331.519 43.1067 330.972 42.5267 330.585 41.78C330.212 41.02 330.025 40.1333 330.025 39.12C330.025 38.1067 330.219 37.22 330.605 36.46C331.005 35.6867 331.559 35.0867 332.265 34.66C332.985 34.2333 333.825 34.02 334.785 34.02C335.439 34.02 336.079 34.14 336.705 34.38C337.332 34.6067 337.839 34.9133 338.225 35.3L337.685 36.5C336.765 35.7533 335.832 35.38 334.885 35.38C333.885 35.38 333.105 35.7067 332.545 36.36C331.985 37.0133 331.705 37.9333 331.705 39.12C331.705 40.2933 331.985 41.2 332.545 41.84C333.105 42.48 333.885 42.8 334.885 42.8C335.832 42.8 336.765 42.4267 337.685 41.68L338.225 42.88C337.812 43.2667 337.292 43.5733 336.665 43.8C336.039 44.0267 335.392 44.14 334.725 44.14ZM348.336 39.38H341.216C341.269 40.5133 341.576 41.3733 342.136 41.96C342.696 42.5333 343.489 42.82 344.516 42.82C345.649 42.82 346.689 42.4333 347.636 41.66L348.176 42.84C347.749 43.24 347.202 43.56 346.536 43.8C345.869 44.0267 345.189 44.14 344.496 44.14C342.976 44.14 341.776 43.6933 340.896 42.8C340.029 41.9067 339.596 40.6733 339.596 39.1C339.596 38.1 339.789 37.22 340.176 36.46C340.562 35.6867 341.102 35.0867 341.796 34.66C342.502 34.2333 343.302 34.02 344.196 34.02C345.489 34.02 346.502 34.4467 347.236 35.3C347.969 36.14 348.336 37.3 348.336 38.78V39.38ZM344.216 35.28C343.362 35.28 342.676 35.5467 342.156 36.08C341.649 36.6133 341.349 37.3667 341.256 38.34H346.916C346.889 37.3533 346.642 36.6 346.176 36.08C345.709 35.5467 345.056 35.28 344.216 35.28ZM355.623 34.02C356.476 34.02 357.229 34.2267 357.883 34.64C358.536 35.0533 359.043 35.64 359.403 36.4C359.763 37.16 359.943 38.04 359.943 39.04C359.943 40.0533 359.763 40.9467 359.403 41.72C359.043 42.48 358.536 43.0733 357.883 43.5C357.229 43.9267 356.476 44.14 355.623 44.14C354.863 44.14 354.196 43.9733 353.623 43.64C353.063 43.3067 352.636 42.8333 352.343 42.22V44H350.723V29.9H352.343V35.94C352.636 35.3267 353.063 34.8533 353.623 34.52C354.196 34.1867 354.863 34.02 355.623 34.02ZM355.303 42.8C356.249 42.8 356.983 42.4733 357.503 41.82C358.023 41.1533 358.283 40.2267 358.283 39.04C358.283 37.88 358.023 36.98 357.503 36.34C356.983 35.7 356.249 35.38 355.303 35.38C354.356 35.38 353.623 35.7 353.103 36.34C352.596 36.98 352.343 37.8933 352.343 39.08C352.343 40.2667 352.596 41.1867 353.103 41.84C353.623 42.48 354.356 42.8 355.303 42.8ZM366.403 44.14C365.483 44.14 364.67 43.9333 363.963 43.52C363.27 43.1067 362.73 42.52 362.343 41.76C361.97 40.9867 361.783 40.0933 361.783 39.08C361.783 38.0667 361.97 37.18 362.343 36.42C362.73 35.6467 363.27 35.0533 363.963 34.64C364.67 34.2267 365.483 34.02 366.403 34.02C367.323 34.02 368.137 34.2267 368.843 34.64C369.55 35.0533 370.09 35.6467 370.463 36.42C370.85 37.18 371.043 38.0667 371.043 39.08C371.043 40.0933 370.85 40.9867 370.463 41.76C370.09 42.52 369.55 43.1067 368.843 43.52C368.137 43.9333 367.323 44.14 366.403 44.14ZM366.403 42.8C367.363 42.8 368.097 42.4867 368.603 41.86C369.123 41.22 369.383 40.2933 369.383 39.08C369.383 37.8933 369.123 36.98 368.603 36.34C368.083 35.6867 367.35 35.36 366.403 35.36C365.457 35.36 364.723 35.6867 364.203 36.34C363.683 36.98 363.423 37.8933 363.423 39.08C363.423 40.28 363.677 41.2 364.183 41.84C364.703 42.48 365.443 42.8 366.403 42.8ZM377.497 44.14C376.577 44.14 375.764 43.9333 375.057 43.52C374.364 43.1067 373.824 42.52 373.437 41.76C373.064 40.9867 372.877 40.0933 372.877 39.08C372.877 38.0667 373.064 37.18 373.437 36.42C373.824 35.6467 374.364 35.0533 375.057 34.64C375.764 34.2267 376.577 34.02 377.497 34.02C378.417 34.02 379.23 34.2267 379.937 34.64C380.644 35.0533 381.184 35.6467 381.557 36.42C381.944 37.18 382.137 38.0667 382.137 39.08C382.137 40.0933 381.944 40.9867 381.557 41.76C381.184 42.52 380.644 43.1067 379.937 43.52C379.23 43.9333 378.417 44.14 377.497 44.14ZM377.497 42.8C378.457 42.8 379.19 42.4867 379.697 41.86C380.217 41.22 380.477 40.2933 380.477 39.08C380.477 37.8933 380.217 36.98 379.697 36.34C379.177 35.6867 378.444 35.36 377.497 35.36C376.55 35.36 375.817 35.6867 375.297 36.34C374.777 36.98 374.517 37.8933 374.517 39.08C374.517 40.28 374.77 41.2 375.277 41.84C375.797 42.48 376.537 42.8 377.497 42.8ZM393.231 44H391.131L386.171 39.34V44H384.551V29.9H386.171V38.68L390.711 34.28H392.771L387.931 38.94L393.231 44Z" fill="white"/>
<defs>
<filter id="filter0_d_212_49" x="0" y="0" width="514" height="74" filterUnits="userSpaceOnUse" color-interpolation-filters="sRGB">
<feFlood flood-opacity="0" result="BackgroundImageFix"/>
<feColorMatrix in="SourceAlpha" type="matrix" values="0 0 0 0 0 0 0 0 0 0 0 0 0 0 0 0 0 0 127 0" result="hardAlpha"/>
<feOffset/>
<feGaussianBlur stdDeviation="3.5"/>
<feComposite in2="hardAlpha" operator="out"/>
<feColorMatrix type="matrix" values="0 0 0 0 0 0 0 0 0 0 0 0 0 0 0 0 0 0 0.25 0"/>
<feBlend mode="normal" in2="BackgroundImageFix" result="effect1_dropShadow_212_49"/>
<feBlend mode="normal" in="SourceGraphic" in2="effect1_dropShadow_212_49" result="shape"/>
</filter>
</defs>
</svg>
