<svg width="514" height="74" viewBox="0 0 514 74" fill="none" xmlns="http://www.w3.org/2000/svg">
<g filter="url(#filter0_d_212_44)">
<rect x="7" y="7" width="500" height="60" rx="10" fill="white"/>
</g>
<path d="M173.692 36.3599C173.692 35.3066 173.599 34.3066 173.439 33.3333H158.372V39.3466H166.999C166.612 41.3199 165.479 42.9866 163.799 44.1199V48.1199H168.945C171.959 45.3333 173.692 41.2266 173.692 36.3599Z" fill="#4285F4"/>
<path d="M158.372 52.0001C162.692 52.0001 166.306 50.5601 168.946 48.1201L163.799 44.1201C162.359 45.0801 160.532 45.6668 158.372 45.6668C154.199 45.6668 150.666 42.8535 149.399 39.0535H144.092V43.1735C146.719 48.4001 152.119 52.0001 158.372 52.0001Z" fill="#34A853"/>
<path d="M149.399 39.0533C149.065 38.0933 148.892 37.0667 148.892 36C148.892 34.9333 149.079 33.9067 149.399 32.9467V28.8267H144.092C142.999 30.9867 142.372 33.4133 142.372 36C142.372 38.5867 142.999 41.0133 144.092 43.1733L149.399 39.0533Z" fill="#FBBC05"/>
<path d="M158.372 26.3333C160.732 26.3333 162.839 27.1467 164.506 28.7333L169.066 24.1733C166.306 21.5867 162.692 20 158.372 20C152.119 20 146.719 23.6 144.092 28.8267L149.399 32.9467C150.666 29.1467 154.199 26.3333 158.372 26.3333Z" fill="#EA4335"/>
<path d="M192.5 44V29.9H194.12V44H192.5ZM201.188 44.14C200.268 44.14 199.455 43.9333 198.748 43.52C198.055 43.1067 197.515 42.52 197.128 41.76C196.755 40.9867 196.568 40.0933 196.568 39.08C196.568 38.0667 196.755 37.18 197.128 36.42C197.515 35.6467 198.055 35.0533 198.748 34.64C199.455 34.2267 200.268 34.02 201.188 34.02C202.108 34.02 202.922 34.2267 203.628 34.64C204.335 35.0533 204.875 35.6467 205.248 36.42C205.635 37.18 205.828 38.0667 205.828 39.08C205.828 40.0933 205.635 40.9867 205.248 41.76C204.875 42.52 204.335 43.1067 203.628 43.52C202.922 43.9333 202.108 44.14 201.188 44.14ZM201.188 42.8C202.148 42.8 202.882 42.4867 203.388 41.86C203.908 41.22 204.168 40.2933 204.168 39.08C204.168 37.8933 203.908 36.98 203.388 36.34C202.868 35.6867 202.135 35.36 201.188 35.36C200.242 35.36 199.508 35.6867 198.988 36.34C198.468 36.98 198.208 37.8933 198.208 39.08C198.208 40.28 198.462 41.2 198.968 41.84C199.488 42.48 200.228 42.8 201.188 42.8ZM216.962 34.26V43.34C216.962 44.7933 216.589 45.8867 215.842 46.62C215.096 47.3667 213.989 47.74 212.522 47.74C210.816 47.74 209.382 47.3 208.222 46.42L208.762 45.22C209.416 45.6467 210.029 45.9533 210.602 46.14C211.176 46.3267 211.816 46.42 212.522 46.42C213.456 46.42 214.162 46.1667 214.642 45.66C215.122 45.1667 215.362 44.44 215.362 43.48V41.76C215.082 42.3867 214.649 42.8667 214.062 43.2C213.489 43.5333 212.809 43.7 212.022 43.7C211.169 43.7 210.409 43.5 209.742 43.1C209.089 42.7 208.576 42.1333 208.202 41.4C207.842 40.6667 207.662 39.82 207.662 38.86C207.662 37.9 207.842 37.0533 208.202 36.32C208.576 35.5867 209.089 35.02 209.742 34.62C210.409 34.22 211.169 34.02 212.022 34.02C212.796 34.02 213.469 34.1867 214.042 34.52C214.616 34.8533 215.049 35.3267 215.342 35.94V34.26H216.962ZM212.342 42.36C213.276 42.36 214.009 42.0533 214.542 41.44C215.076 40.8133 215.342 39.9533 215.342 38.86C215.342 37.78 215.076 36.9333 214.542 36.32C214.022 35.6933 213.289 35.38 212.342 35.38C211.396 35.38 210.649 35.6933 210.102 36.32C209.569 36.9333 209.302 37.78 209.302 38.86C209.302 39.9533 209.569 40.8133 210.102 41.44C210.649 42.0533 211.396 42.36 212.342 42.36ZM219.961 44V34.26H221.581V44H219.961ZM219.801 30.04H221.761V31.86H219.801V30.04ZM229.509 34.02C231.843 34.02 233.009 35.3067 233.009 37.88V44H231.389V37.98C231.389 37.0733 231.209 36.4133 230.849 36C230.503 35.5867 229.943 35.38 229.169 35.38C228.276 35.38 227.563 35.6533 227.029 36.2C226.496 36.7467 226.229 37.4867 226.229 38.42V44H224.609V34.26H226.209V35.86C226.529 35.26 226.976 34.8067 227.549 34.5C228.123 34.18 228.776 34.02 229.509 34.02ZM249.773 29.9V44H248.153V42.22C247.859 42.8333 247.426 43.3067 246.853 43.64C246.293 43.9733 245.633 44.14 244.873 44.14C244.019 44.14 243.266 43.9267 242.613 43.5C241.959 43.0733 241.453 42.48 241.093 41.72C240.733 40.9467 240.553 40.0533 240.553 39.04C240.553 38.04 240.733 37.16 241.093 36.4C241.453 35.64 241.959 35.0533 242.613 34.64C243.266 34.2267 244.019 34.02 244.873 34.02C245.633 34.02 246.293 34.1867 246.853 34.52C247.426 34.8533 247.859 35.3267 248.153 35.94V29.9H249.773ZM245.193 42.8C246.139 42.8 246.866 42.48 247.373 41.84C247.893 41.1867 248.153 40.2667 248.153 39.08C248.153 37.8933 247.893 36.98 247.373 36.34C246.866 35.7 246.139 35.38 245.193 35.38C244.246 35.38 243.506 35.7 242.973 36.34C242.453 36.98 242.193 37.88 242.193 39.04C242.193 40.2267 242.453 41.1533 242.973 41.82C243.506 42.4733 244.246 42.8 245.193 42.8ZM260.933 39.38H253.813C253.867 40.5133 254.173 41.3733 254.733 41.96C255.293 42.5333 256.087 42.82 257.113 42.82C258.247 42.82 259.287 42.4333 260.233 41.66L260.773 42.84C260.347 43.24 259.8 43.56 259.133 43.8C258.467 44.0267 257.787 44.14 257.093 44.14C255.573 44.14 254.373 43.6933 253.493 42.8C252.627 41.9067 252.193 40.6733 252.193 39.1C252.193 38.1 252.387 37.22 252.773 36.46C253.16 35.6867 253.7 35.0867 254.393 34.66C255.1 34.2333 255.9 34.02 256.793 34.02C258.087 34.02 259.1 34.4467 259.833 35.3C260.567 36.14 260.933 37.3 260.933 38.78V39.38ZM256.813 35.28C255.96 35.28 255.273 35.5467 254.753 36.08C254.247 36.6133 253.947 37.3667 253.853 38.34H259.513C259.487 37.3533 259.24 36.6 258.773 36.08C258.307 35.5467 257.653 35.28 256.813 35.28ZM268.22 34.02C270.554 34.02 271.72 35.3067 271.72 37.88V44H270.1V37.98C270.1 37.0733 269.92 36.4133 269.56 36C269.214 35.5867 268.654 35.38 267.88 35.38C266.987 35.38 266.274 35.6533 265.74 36.2C265.207 36.7467 264.94 37.4867 264.94 38.42V44H263.32V34.26H264.92V35.86C265.24 35.26 265.687 34.8067 266.26 34.5C266.834 34.18 267.487 34.02 268.22 34.02ZM283.408 34.26V43.34C283.408 44.7933 283.034 45.8867 282.288 46.62C281.541 47.3667 280.434 47.74 278.968 47.74C277.261 47.74 275.828 47.3 274.668 46.42L275.208 45.22C275.861 45.6467 276.474 45.9533 277.048 46.14C277.621 46.3267 278.261 46.42 278.968 46.42C279.901 46.42 280.608 46.1667 281.088 45.66C281.568 45.1667 281.808 44.44 281.808 43.48V41.76C281.528 42.3867 281.094 42.8667 280.508 43.2C279.934 43.5333 279.254 43.7 278.467 43.7C277.614 43.7 276.854 43.5 276.188 43.1C275.534 42.7 275.021 42.1333 274.648 41.4C274.288 40.6667 274.108 39.82 274.108 38.86C274.108 37.9 274.288 37.0533 274.648 36.32C275.021 35.5867 275.534 35.02 276.188 34.62C276.854 34.22 277.614 34.02 278.467 34.02C279.241 34.02 279.914 34.1867 280.488 34.52C281.061 34.8533 281.494 35.3267 281.788 35.94V34.26H283.408ZM278.788 42.36C279.721 42.36 280.454 42.0533 280.988 41.44C281.521 40.8133 281.788 39.9533 281.788 38.86C281.788 37.78 281.521 36.9333 280.988 36.32C280.468 35.6933 279.734 35.38 278.788 35.38C277.841 35.38 277.094 35.6933 276.548 36.32C276.014 36.9333 275.748 37.78 275.748 38.86C275.748 39.9533 276.014 40.8133 276.548 41.44C277.094 42.0533 277.841 42.36 278.788 42.36ZM290.366 34.02C291.606 34.02 292.526 34.34 293.126 34.98C293.74 35.6067 294.046 36.5667 294.046 37.86V44H292.466V42.34C292.213 42.9133 291.826 43.36 291.306 43.68C290.786 43.9867 290.186 44.14 289.506 44.14C288.88 44.14 288.3 44.0133 287.766 43.76C287.246 43.5067 286.833 43.1533 286.526 42.7C286.22 42.2467 286.066 41.7467 286.066 41.2C286.066 40.4667 286.253 39.9 286.626 39.5C287 39.0867 287.613 38.7933 288.466 38.62C289.32 38.4333 290.506 38.34 292.026 38.34H292.466V37.68C292.466 36.8667 292.3 36.28 291.966 35.92C291.633 35.5467 291.093 35.36 290.346 35.36C289.226 35.36 288.113 35.7067 287.006 36.4L286.466 35.22C286.973 34.86 287.58 34.5733 288.286 34.36C289.006 34.1333 289.7 34.02 290.366 34.02ZM289.726 42.86C290.526 42.86 291.18 42.5933 291.686 42.06C292.206 41.5133 292.466 40.8133 292.466 39.96V39.38H292.106C290.933 39.38 290.04 39.4333 289.426 39.54C288.813 39.6333 288.373 39.8 288.106 40.04C287.853 40.2667 287.726 40.6067 287.726 41.06C287.726 41.58 287.913 42.0133 288.286 42.36C288.673 42.6933 289.153 42.86 289.726 42.86ZM301.912 34.02C304.245 34.02 305.412 35.3067 305.412 37.88V44H303.792V37.98C303.792 37.0733 303.612 36.4133 303.252 36C302.905 35.5867 302.345 35.38 301.572 35.38C300.678 35.38 299.965 35.6533 299.432 36.2C298.898 36.7467 298.632 37.4867 298.632 38.42V44H297.012V34.26H298.612V35.86C298.932 35.26 299.378 34.8067 299.952 34.5C300.525 34.18 301.178 34.02 301.912 34.02ZM322.255 34.26V43.34C322.255 44.7933 321.882 45.8867 321.135 46.62C320.388 47.3667 319.282 47.74 317.815 47.74C316.108 47.74 314.675 47.3 313.515 46.42L314.055 45.22C314.708 45.6467 315.322 45.9533 315.895 46.14C316.468 46.3267 317.108 46.42 317.815 46.42C318.748 46.42 319.455 46.1667 319.935 45.66C320.415 45.1667 320.655 44.44 320.655 43.48V41.76C320.375 42.3867 319.942 42.8667 319.355 43.2C318.782 43.5333 318.102 43.7 317.315 43.7C316.462 43.7 315.702 43.5 315.035 43.1C314.382 42.7 313.868 42.1333 313.495 41.4C313.135 40.6667 312.955 39.82 312.955 38.86C312.955 37.9 313.135 37.0533 313.495 36.32C313.868 35.5867 314.382 35.02 315.035 34.62C315.702 34.22 316.462 34.02 317.315 34.02C318.088 34.02 318.762 34.1867 319.335 34.52C319.908 34.8533 320.342 35.3267 320.635 35.94V34.26H322.255ZM317.635 42.36C318.568 42.36 319.302 42.0533 319.835 41.44C320.368 40.8133 320.635 39.9533 320.635 38.86C320.635 37.78 320.368 36.9333 319.835 36.32C319.315 35.6933 318.582 35.38 317.635 35.38C316.688 35.38 315.942 35.6933 315.395 36.32C314.862 36.9333 314.595 37.78 314.595 38.86C314.595 39.9533 314.862 40.8133 315.395 41.44C315.942 42.0533 316.688 42.36 317.635 42.36ZM329.294 44.14C328.374 44.14 327.561 43.9333 326.854 43.52C326.161 43.1067 325.621 42.52 325.234 41.76C324.861 40.9867 324.674 40.0933 324.674 39.08C324.674 38.0667 324.861 37.18 325.234 36.42C325.621 35.6467 326.161 35.0533 326.854 34.64C327.561 34.2267 328.374 34.02 329.294 34.02C330.214 34.02 331.027 34.2267 331.734 34.64C332.441 35.0533 332.981 35.6467 333.354 36.42C333.741 37.18 333.934 38.0667 333.934 39.08C333.934 40.0933 333.741 40.9867 333.354 41.76C332.981 42.52 332.441 43.1067 331.734 43.52C331.027 43.9333 330.214 44.14 329.294 44.14ZM329.294 42.8C330.254 42.8 330.987 42.4867 331.494 41.86C332.014 41.22 332.274 40.2933 332.274 39.08C332.274 37.8933 332.014 36.98 331.494 36.34C330.974 35.6867 330.241 35.36 329.294 35.36C328.347 35.36 327.614 35.6867 327.094 36.34C326.574 36.98 326.314 37.8933 326.314 39.08C326.314 40.28 326.567 41.2 327.074 41.84C327.594 42.48 328.334 42.8 329.294 42.8ZM340.388 44.14C339.468 44.14 338.654 43.9333 337.948 43.52C337.254 43.1067 336.714 42.52 336.328 41.76C335.954 40.9867 335.768 40.0933 335.768 39.08C335.768 38.0667 335.954 37.18 336.328 36.42C336.714 35.6467 337.254 35.0533 337.948 34.64C338.654 34.2267 339.468 34.02 340.388 34.02C341.308 34.02 342.121 34.2267 342.828 34.64C343.534 35.0533 344.074 35.6467 344.448 36.42C344.834 37.18 345.028 38.0667 345.028 39.08C345.028 40.0933 344.834 40.9867 344.448 41.76C344.074 42.52 343.534 43.1067 342.828 43.52C342.121 43.9333 341.308 44.14 340.388 44.14ZM340.388 42.8C341.348 42.8 342.081 42.4867 342.588 41.86C343.108 41.22 343.368 40.2933 343.368 39.08C343.368 37.8933 343.108 36.98 342.588 36.34C342.068 35.6867 341.334 35.36 340.388 35.36C339.441 35.36 338.708 35.6867 338.188 36.34C337.668 36.98 337.408 37.8933 337.408 39.08C337.408 40.28 337.661 41.2 338.168 41.84C338.688 42.48 339.428 42.8 340.388 42.8ZM356.161 34.26V43.34C356.161 44.7933 355.788 45.8867 355.041 46.62C354.295 47.3667 353.188 47.74 351.721 47.74C350.015 47.74 348.581 47.3 347.421 46.42L347.961 45.22C348.615 45.6467 349.228 45.9533 349.801 46.14C350.375 46.3267 351.015 46.42 351.721 46.42C352.655 46.42 353.361 46.1667 353.841 45.66C354.321 45.1667 354.561 44.44 354.561 43.48V41.76C354.281 42.3867 353.848 42.8667 353.261 43.2C352.688 43.5333 352.008 43.7 351.221 43.7C350.368 43.7 349.608 43.5 348.941 43.1C348.288 42.7 347.775 42.1333 347.401 41.4C347.041 40.6667 346.861 39.82 346.861 38.86C346.861 37.9 347.041 37.0533 347.401 36.32C347.775 35.5867 348.288 35.02 348.941 34.62C349.608 34.22 350.368 34.02 351.221 34.02C351.995 34.02 352.668 34.1867 353.241 34.52C353.815 34.8533 354.248 35.3267 354.541 35.94V34.26H356.161ZM351.541 42.36C352.475 42.36 353.208 42.0533 353.741 41.44C354.275 40.8133 354.541 39.9533 354.541 38.86C354.541 37.78 354.275 36.9333 353.741 36.32C353.221 35.6933 352.488 35.38 351.541 35.38C350.595 35.38 349.848 35.6933 349.301 36.32C348.768 36.9333 348.501 37.78 348.501 38.86C348.501 39.9533 348.768 40.8133 349.301 41.44C349.848 42.0533 350.595 42.36 351.541 42.36ZM359.16 44V29.9H360.78V44H359.16ZM371.969 39.38H364.849C364.902 40.5133 365.209 41.3733 365.769 41.96C366.329 42.5333 367.122 42.82 368.149 42.82C369.282 42.82 370.322 42.4333 371.269 41.66L371.809 42.84C371.382 43.24 370.835 43.56 370.169 43.8C369.502 44.0267 368.822 44.14 368.129 44.14C366.609 44.14 365.409 43.6933 364.529 42.8C363.662 41.9067 363.229 40.6733 363.229 39.1C363.229 38.1 363.422 37.22 363.809 36.46C364.195 35.6867 364.735 35.0867 365.429 34.66C366.135 34.2333 366.935 34.02 367.829 34.02C369.122 34.02 370.135 34.4467 370.869 35.3C371.602 36.14 371.969 37.3 371.969 38.78V39.38ZM367.849 35.28C366.995 35.28 366.309 35.5467 365.789 36.08C365.282 36.6133 364.982 37.3667 364.889 38.34H370.549C370.522 37.3533 370.275 36.6 369.809 36.08C369.342 35.5467 368.689 35.28 367.849 35.28Z" fill="#1D1D1D"/>
<defs>
<filter id="filter0_d_212_44" x="0" y="0" width="514" height="74" filterUnits="userSpaceOnUse" color-interpolation-filters="sRGB">
<feFlood flood-opacity="0" result="BackgroundImageFix"/>
<feColorMatrix in="SourceAlpha" type="matrix" values="0 0 0 0 0 0 0 0 0 0 0 0 0 0 0 0 0 0 127 0" result="hardAlpha"/>
<feOffset/>
<feGaussianBlur stdDeviation="3.5"/>
<feComposite in2="hardAlpha" operator="out"/>
<feColorMatrix type="matrix" values="0 0 0 0 0 0 0 0 0 0 0 0 0 0 0 0 0 0 0.25 0"/>
<feBlend mode="normal" in2="BackgroundImageFix" result="effect1_dropShadow_212_44"/>
<feBlend mode="normal" in="SourceGraphic" in2="effect1_dropShadow_212_44" result="shape"/>
</filter>
</defs>
</svg>
